<?xml version="1.0" encoding="UTF-8"?>
<svg version="1.1" viewBox="0 0 1000 666.67" xmlns="http://www.w3.org/2000/svg">
<defs>
<clipPath id="j">
<path d="m0 500h750v-500h-750z"/>
</clipPath>
<clipPath id="k">
<path d="m84.223 348.69h11.172v-43.667h-11.172z"/>
</clipPath>
<clipPath id="i">
<path d="m259.61 386.07h32.236v-20.611h-32.236z"/>
</clipPath>
<clipPath id="h">
<path d="m563.03 333.06h34.164v-21.703h-34.164z"/>
</clipPath>
<clipPath id="g">
<path d="m88.564 146.87h26.134v-20.386h-26.134z"/>
</clipPath>
<clipPath id="f">
<path d="m166.54 327.94h32.334v-22.072h-32.334z"/>
</clipPath>
<clipPath id="e">
<path d="m449.96 281.52h58.417v-161.08h-58.417z"/>
</clipPath>
<clipPath id="d">
<path d="m478.18 291.18h54.633v-17.224h-54.633z"/>
</clipPath>
<clipPath id="c">
<path d="m156.8 208.4h227.21v-143.7h-227.21z"/>
</clipPath>
<clipPath id="b">
<path d="m268.28 267.31h69.085v-48.53h-69.085z"/>
</clipPath>
<clipPath id="a">
<path d="m243.5 280.29h70.352v-27.681h-70.352z"/>
</clipPath>
</defs>
<g transform="matrix(1.3333 0 0 -1.3333 0 666.67)">
<path d="m0 0h750v500h-750z" fill="#fff"/>
<g clip-path="url(#j)">
<g transform="translate(621.11 368.79)">
<path d="m0 0c-4.038-1.388-8.172-2.791-12.442-2.763-4.27 0.029-8.776 1.761-11.015 5.397-1.582 2.568-1.846 5.838-0.98 8.727 0.867 2.888 2.795 5.397 5.187 7.234 2.154 1.654 4.748 2.812 7.46 2.961 3.33 0.182 6.551-1.139 9.519-2.66 2.597-1.331 5.126-2.849 7.275-4.824 1.226-1.127 2.36-2.47 2.722-4.096 0.477-2.145-0.507-4.404-2.014-6.003-1.508-1.598-3.266-3.132-5.712-3.973" fill="#f8a3a8"/>
</g>
<g transform="translate(659.63 279.46)">
<path d="m0 0c4.146 1.103 8.058 3.075 11.41 5.753 1.837 1.467 3.592 3.298 4.015 5.61 0.232 1.273 0.034 2.603-0.441 3.807-1.277 3.243-4.457 5.451-7.824 6.351-3.825 1.022-8.029 0.544-11.526-1.311s-6.251-5.068-7.55-8.807c-0.592-1.706-0.889-3.564-0.486-5.324 0.602-2.628 2.745-4.739 5.249-5.741 2.503-1.002 5.266-0.84 7.153-0.338" fill="#f8a3a8"/>
</g>
<g transform="translate(696.78 88.164)">
<path d="m0 0c-1.745-2.784-4.908-4.47-8.151-4.995-3.243-0.526-6.572-6e-3 -9.744 0.848-3.8 1.023-7.603 2.617-10.242 5.537-2.639 2.919-3.828 7.416-2.01 10.907 0.99 1.899 2.729 3.303 4.574 4.392 6.799 4.012 15.701 4.184 22.65 0.439 3.219-1.735 6.191-4.571 6.645-8.2 0.461-3.682-2.318-6.688-3.722-8.928" fill="#f8a3a8"/>
</g>
<g transform="translate(715.23 98.118)">
<path d="m0 0c-2.096 0.538-4.169 1.489-5.546 3.158-1.378 1.668-1.899 4.163-0.834 6.046 1.192 2.106 3.995 2.854 6.362 2.35 1.976-0.421 3.815-1.612 4.843-3.351s1.162-4.022 0.179-5.787c-0.984-1.764-3.127-2.898-5.004-2.416" fill="#f8a3a8"/>
</g>
<g transform="translate(703.42 110.37)">
<path d="m0 0c-3.031-1.042-6.613-0.262-8.936 1.947-0.938 0.892-1.692 2.032-1.893 3.31-0.311 1.97 0.798 4.013 2.489 5.069 1.692 1.057 3.854 1.199 5.773 0.657 2.445-0.69 4.63-2.586 5.219-5.057 0.59-2.471-0.777-5.281-2.652-5.926" fill="#f8a3a8"/>
</g>
<g transform="translate(353.08 77.356)">
<path d="m0 0c-33.211-14.079-68.963-22.136-105-23.663-26.493-1.123-56.219 2.794-72.998 23.327-9.751 11.933-14.485 28.784-28.045 36.106-13.68 7.386-30.562 1.94-45.975 3.972-16.031 2.113-30.593 13.135-36.981 27.99-6.388 14.854-4.371 33.005 5.122 46.095 22.228 30.648 76.097 29.26 90.731 64.177 6.437 15.359 2.629 32.973 5.273 49.415 3.421 21.278 17.843 39.744 35.885 51.533 18.041 11.789 39.428 17.523 60.791 20.364 28.179 3.748 59.9 1.582 80.306-18.21 12.596-12.216 19.614-30.056 34.425-39.465 7.393-4.697 16.08-6.83 24.139-10.261 30.382-12.935 50.376-44.917 53.302-77.808 2.927-32.891-9.615-65.961-29.925-91.997s-45.149-50.596-71.047-61.575" fill="#f8a3a8"/>
</g>
<g transform="translate(582.75 59.53)">
<path d="m0 0c-38.252-13.768-79.828-18.199-120.12-12.801-25.017 3.351-49.607 10.424-74.84 11.045-20.979 0.516-43.09-3.26-62.163 5.491-22.443 10.297-34.402 35.486-38.427 59.848-3.775 22.852-1.908 47.33 9.511 67.482 23.76 41.931 80.462 54.075 109.22 92.746 8.482 11.402 14.141 24.647 22.004 36.484 26.567 39.992 79.77 60.149 126.17 47.801 20.94-5.573 41.349-18.449 49.379-38.575 10.316-25.856-2.023-56.306 7.161-82.585 6.4-18.315 22.17-31.554 32.576-47.927 16.678-26.242 18.438-61.302 4.472-89.082s-44.293-42.495-64.943-49.927" fill="#fbb4b8"/>
</g>
<g transform="translate(154.1 288.99)">
<path d="m0 0c-1.196 1.771-2.693 3.694-4.821 3.881-1.793 0.158-3.505-1.074-4.328-2.674-0.824-1.6-0.894-3.489-0.667-5.274 0.271-2.134 0.968-4.264 2.338-5.923 1.369-1.66 3.476-2.788 5.623-2.646 2.955 0.197 4.824 3.225 4.761 5.751s-1.492 4.791-2.906 6.885m-9.931 50.338c0.238-0.845 0.597-1.755 1.381-2.15 0.777-0.392 1.728-0.142 2.5 0.26 2.865 1.491 4.41 5.133 3.491 8.229-0.277 0.936-0.751 1.818-0.897 2.783-0.317 2.09 0.927 4.049 1.687 6.02 0.759 1.972 0.793 4.689-1.07 5.686-1.771 0.949-3.919-0.381-5.23-1.904-3.473-4.033-4.615-9.943-2.895-14.979 0.303-0.888 0.607-2.431 1.033-3.945m0.809-67.337c-8.693 10.18-17.368 21.838-17.423 35.225-0.041 9.994 4.764 19.258 8.594 28.49 1.581 3.811 2.844 8.67 0.013 11.672-2.097 2.223-5.782 2.326-8.49 0.907s-4.585-4.033-6.012-6.737c-3.832-7.262-5.068-15.662-4.904-23.872 0.434-21.777 10.795-43.163 27.617-57.002 2.367-0.101 4.329 2.658 4.085 5.069-0.245 2.411-1.906 4.405-3.48 6.248" fill="#f8a3a8"/>
</g>
<g transform="translate(696.22 189.6)">
<path d="m0 0c-0.137 1.68-1.189 3.257-2.687 4.029-1.499 0.773-3.393 0.715-4.842-0.147-0.708-0.422-1.319-1.039-1.627-1.804-0.522-1.299-0.066-2.856 0.892-3.878 0.959-1.021 2.337-1.565 3.721-1.783 1.412-0.223 2.728-0.044 3.608 0.773 0.748 0.695 1.018 1.791 0.935 2.81m-22.891 21.95c1.594-0.955 3.368-1.585 4.943-2.572 2.945-1.846 5.063-4.96 5.7-8.376-0.479-0.962 0.273-2.187 1.324-2.516 1.052-0.329 2.241 0.116 3.002 0.913s1.146 1.888 1.315 2.977c0.488 3.152-0.701 6.382-2.58 8.959-1.88 2.577-4.403 4.601-6.925 6.554-1.059 0.82-2.156 1.651-3.442 2.029-1.475 0.435-3.076 0.23-4.534-0.261-0.69-0.232-1.389-0.551-1.832-1.129-0.508-0.666-0.59-1.58-0.418-2.4 0.381-1.819 1.853-3.222 3.447-4.178m7.366-22.894c-2.561 3.18-3.25 7.437-4.995 11.128-1.746 3.691-5.581 7.155-9.496 5.994-2.367-0.702-3.981-2.916-4.932-5.196-2.109-5.061-1.691-11.106 1.096-15.829 3.523-5.972 10.3-9.524 13.613-15.615 2.669-4.907 2.713-10.904 1.315-16.312-1.398-5.409-4.12-10.367-6.814-15.261-0.579 0.096-0.627-2.383 0.566-4.095 1.192-1.713 3.534-2.528 5.532-1.926 1.603 0.483 2.849 1.727 3.96 2.979 5.774 6.499 9.877 14.471 11.811 22.947 2.027 8.881 1.248 19.265-5.333 25.563-2.042 1.953-4.551 3.423-6.323 5.623" fill="#f8a3a8"/>
</g>
<g transform="translate(454.33 362.73)">
<path d="m0 0c-15.096-8.791-41.319-5.006-57.241-0.527-11.491 3.233-22.642 9.039-33.752 13.396-22.092 8.662-45.066 16.46-69.069 16.463-15.953 1e-3 -31.737-3.438-47.686-3.769-6.533-0.136-13.627 0.463-18.531 4.782-6.728 5.926-6.559 17.114-1.615 24.595 4.944 7.48 13.419 11.853 21.909 14.735 31.261 10.61 66.218 4.784 96.308-8.796 28.493-12.86 55.933-32.906 87.166-31.58 5.519 0.235 11.045 1.153 16.539 0.581 5.494-0.571 11.175-2.955 13.981-7.713 4.44-7.527-0.457-17.769-8.009-22.167" fill="#fadbd6"/>
</g>
<g transform="translate(462.78 409.54)">
<path d="m0 0c-19.041 3.767-40.389-10.03-57.207-0.341-1.12 0.646-2.243 1.452-2.737 2.647-0.73 1.763 0.137 3.789 1.292 5.307 3.528 4.636 9.597 6.735 15.418 6.925 5.822 0.189 11.553-1.265 17.247-2.491 10.25-2.207 20.921-3.697 31.178-1.528 5.924 1.253 11.524 3.69 17.322 5.436 18.329 5.52 38.135 3.966 56.759-0.46 13.202-3.137 26.485-7.933 36.35-17.251 3.314-3.129 6.29-6.954 6.983-11.459 1.059-6.883-3.687-13.668-9.841-16.929-6.154-3.26-13.404-3.662-20.364-3.42-15.256 0.532-32.878 3.237-47.218 8.894-15.901 6.273-28.195 21.309-45.182 24.67" fill="#f8a3a8"/>
</g>
<g transform="translate(627.75 323.99)">
<path d="m0 0c-1.347 0-2.656-0.553-3.006-1.709-0.174-0.571-0.039-1.22 0.37-1.779 0.481-0.66 1.243-1.077 1.989-1.089h0.043c1.549 0 2.792 1.297 3.224 2.593 0.134 0.402 0.209 0.813 0.239 1.221-0.565 0.289-1.171 0.511-1.817 0.652-0.339 0.074-0.692 0.111-1.042 0.111m4.769-12.663c-0.329 0-0.643-0.04-0.925-0.123-0.644-0.19-1.082-0.579-1.3-1.156-0.205-0.54-0.122-1.149 0.234-1.716 0.422-0.673 1.135-1.131 1.861-1.194 1.309-0.112 2.728 0.793 3.418 2.211 0.086 0.177 0.163 0.359 0.229 0.548-0.186 0.161-0.378 0.315-0.576 0.46-0.837 0.615-1.96 0.97-2.941 0.97m6.691-17.883c-0.028 0-0.055 4e-3 -0.083 0.012-0.146 0.047-0.228 0.203-0.182 0.349 1.022 3.252 1.32 6.264 0.885 8.952-0.432 2.667-1.63 5.053-3.352 6.735-0.053-0.132-0.11-0.26-0.171-0.386-0.79-1.62-2.424-2.655-3.967-2.522-0.895 0.079-1.77 0.635-2.283 1.453-0.444 0.707-0.547 1.512-0.283 2.208 0.28 0.737 0.855 1.254 1.663 1.492 1.295 0.382 3.085-1e-3 4.352-0.932 0.143-0.105 0.283-0.214 0.42-0.327 0.221 0.918 0.257 1.991 0.113 3.288-0.374 3.392-2.124 7.288-5.184 9.164-0.044-0.384-0.125-0.751-0.241-1.1-0.582-1.748-2.186-3.015-3.803-2.973-0.916 0.015-1.847 0.519-2.43 1.317-0.511 0.702-0.676 1.529-0.452 2.268 0.534 1.763 2.809 2.391 4.698 1.98 0.604-0.132 1.175-0.329 1.712-0.583-0.029 1.005-0.293 1.958-0.568 2.692-1.933 5.155-7.713 8.553-13.156 7.739-0.148-0.022-0.293 0.082-0.316 0.234s0.082 0.293 0.233 0.316c5.698 0.851 11.738-2.703 13.759-8.094 0.419-1.116 0.621-2.189 0.605-3.176 3.373-1.917 5.297-6.098 5.696-9.723 0.164-1.492 0.102-2.713-0.199-3.757 1.908-1.773 3.236-4.344 3.702-7.224 0.449-2.775 0.145-5.873-0.903-9.208-0.037-0.118-0.147-0.194-0.265-0.194"/>
</g>
<g transform="translate(372.01 352.35)">
<path d="m0 0h6e-3zm-3.527 10.662c-0.673 0-1.398-0.094-2.172-0.283-1.767-0.43-3.08-1.181-3.902-2.232-0.884-1.13-1.278-2.749-1.11-4.56 0.13-1.405 0.549-2.534 1.246-3.356 0.946-1.116 2.589-1.772 4.361-1.758 1.784 0.015 3.535 0.634 4.931 1.745 1.384 1.1 2.132 3.049 2.003 5.214-0.125 2.065-1.273 3.917-2.928 4.716-0.709 0.343-1.522 0.514-2.429 0.514m-1.64-12.745c-1.95 0-3.668 0.711-4.722 1.955-0.772 0.911-1.235 2.143-1.376 3.663-0.181 1.953 0.255 3.713 1.226 4.954 0.901 1.152 2.317 1.97 4.209 2.43 1.947 0.474 3.621 0.383 4.974-0.271 1.833-0.885 3.104-2.92 3.24-5.183 0.141-2.346-0.686-4.47-2.211-5.683-1.493-1.186-3.365-1.849-5.273-1.865h-0.067"/>
</g>
<g transform="translate(181.58 216.85)">
<path d="m0 0c0.039 1.832-0.934 3.683-2.531 4.584-1.748 0.986-4.062 0.73-5.678-0.46-1.616-1.191-2.534-3.204-2.584-5.211-0.027-1.099 0.197-2.229 0.8-3.148 0.603-0.92 1.618-1.601 2.716-1.647 1.373-0.057 3.27 0.138 4.754 1.214 1.483 1.077 2.484 2.836 2.523 4.668m-42.919 2.31c-1.694 0.333-3.489 0.138-5.072-0.551-1.254-0.547-2.428-1.474-2.859-2.773-0.405-1.219-0.074-2.612 0.696-3.641 0.77-1.028 1.934-1.715 3.164-2.085 2.743-0.824 5.902-0.068 7.975 1.908 0.87 0.83 1.077 2.914 0.244 4.407s-2.471 2.404-4.148 2.735m22.145 28.884c-1.257 1.889-4.028 2.389-6.081 1.424s-3.382-3.105-3.821-5.331c-0.271-1.378-0.237-2.842 0.292-4.142 0.529-1.301 1.589-2.417 2.929-2.834 2.012-0.243 4.6 0.815 5.972 2.795 0.666 0.96 1.05 2.09 1.286 3.234 0.338 1.639 0.351 3.461-0.577 4.854m-22.303 7.83c-1.006 1.602-2.505 2.891-4.239 3.646-1.777 0.774-4.124 0.863-5.391-0.603-0.516-0.597-0.779-1.374-0.932-2.148-0.541-2.726 0.245-5.764 2.3-7.634 2.056-1.87 5.39-2.317 7.698-0.769 1.082 0.726 1.67 2.19 1.726 3.576 0.056 1.387-0.424 2.757-1.162 3.932" fill="#fcab00"/>
</g>
<g transform="translate(179.87 154.37)">
<path d="m0 0c-2.833 14.312-7.014 28.313-12.443 41.803 0.802 4.028 2.726 7.786 4.591 11.422 0.497 0.97 0.994 1.939 1.471 2.913 0.683 1.395 1.338 2.831 1.971 4.219 1.008 2.21 2.05 4.495 3.227 6.66 0.073 0.135 0.023 0.304-0.111 0.377-0.134 0.072-0.304 0.024-0.377-0.111-1.186-2.183-2.233-4.476-3.244-6.695-0.632-1.385-1.285-2.818-1.965-4.206-0.475-0.971-0.97-1.937-1.466-2.903-1.762-3.434-3.566-6.979-4.461-10.781-2.091 5.135-4.364 10.195-6.813 15.169-8e-3 0.058-0.035 0.11-0.074 0.153-2.357 4.78-4.876 9.48-7.554 14.09 0.937 7.951 2.882 15.766 5.782 23.228 0.055 0.143-0.016 0.304-0.159 0.36-0.142 0.058-0.304-0.015-0.359-0.159-2.831-7.282-4.748-14.901-5.72-22.652-6.532 11.148-13.983 21.768-22.297 31.711-0.099 0.118-0.274 0.134-0.392 0.035-0.117-0.098-0.133-0.274-0.035-0.391 11.802-14.114 21.87-29.589 30.014-46.014-9.479 2.053-19.191 2.898-28.882 2.496-0.153-6e-3 -0.272-0.135-0.266-0.289 5e-3 -0.126 0.094-0.229 0.21-0.258 0.025-6e-3 0.052-9e-3 0.079-8e-3 9.788 0.406 19.6-0.461 29.166-2.572 2.558-5.196 4.927-10.485 7.093-15.858 0-0.071 0.026-0.135 0.072-0.185 5.408-13.445 9.573-27.399 12.397-41.662 0.021-0.109 0.104-0.19 0.205-0.216 0.038-9e-3 0.08-0.011 0.121-3e-3 0.151 0.03 0.249 0.176 0.219 0.327"/>
</g>
<g transform="translate(74.993 223.69)">
<path d="m0 0c0.07-0.052 0.136-0.108 0.208-0.158l-0.159-0.202c3.74 3.181 5.879 7.833 7.536 12.454 3.017 8.421 4.82 17.506 3.356 26.33-0.349 2.1-0.897 4.211-2.054 5.998-1.157 1.786-3.004 3.221-5.119 3.46-1.887 0.213-3.796-0.545-5.261-1.753-1.465-1.209-2.533-2.833-3.398-4.524-2.324-4.535-3.326-9.671-3.392-14.766-0.067-5.095 0.776-10.165 1.982-15.115 0.298-1.221 0.637-2.46 1.047-3.672-3.933 3.634-8.73 6.312-13.778 8.14-5.744 2.08-11.933 3.115-18.002 2.416-4.107-0.473-8.554-2.096-10.346-5.821-0.988-2.052-0.998-4.496-0.295-6.662 0.703-2.167 2.073-4.073 3.706-5.661 3.79-3.684 8.918-5.694 14.076-6.846 5.172-1.154 10.561-1.533 15.783-0.635 5.223 0.897 10.276 3.117 14.167 6.714-0.014 0.105-0.04 0.201-0.057 0.303m41.894 10.434c-0.451 1.377-1.273 2.821-2.673 3.19-1.12 0.295-2.298-0.192-3.271-0.818-2.459-1.583-4.212-4.062-5.555-6.659-3.232-6.245-4.403-13.536-3.289-20.479 0.163-1.017 0.377-2.036 1.176-3 2.527 0.486 4.787 1.967 6.555 3.836 1.769 1.869 3.087 4.116 4.248 6.413 1.37 2.71 2.549 5.541 3.15 8.517s0.603 6.115-0.341 9m-13.182-30.034c-5.514 6.815-16.625 5.42-25.098 4.329-4.602-0.593-9.355-2.109-12.4-5.611-1.286-1.478-2.234-3.36-2.15-5.318 0.109-2.557 2-4.792 4.299-5.919 2.299-1.126 4.945-1.311 7.504-1.215 3.657 0.137 7.335 0.823 10.627 2.422 4.313 2.095 7.768 5.646 12.002 7.895-2.026-3.199-3.637-6.695-4.414-10.401s-0.693-7.634 0.568-11.205c0.393-1.115 0.913-2.212 1.732-3.065 0.818-0.853 1.975-1.44 3.155-1.357 1.571 0.11 2.839 1.342 3.684 2.672 1.072 1.687 1.695 3.619 2.162 5.563 1.091 4.535 1.385 9.261 0.863 13.897-0.292 2.6-0.888 5.28-2.534 7.313" fill="#ed6c71"/>
</g>
<g transform="translate(179.97 99.817)">
<path d="m0 0c-17.087 33.386-40.953 74.584-76.712 104.93 0.914 9.328 3.839 18.562 8.466 26.711 0.076 0.134 0.029 0.304-0.104 0.379-0.134 0.077-0.303 0.029-0.379-0.104-4.604-8.107-7.533-17.279-8.495-26.557-3.169 2.672-6.421 5.268-9.78 7.756-6.557 4.856-12.196 8.335-17.622 10.838-1.421 4.681-1.565 9.79-1.335 16.006 0.219 5.933 0.695 11.932 1.414 17.83 0.334 2.731 0.717 5.388 1.724 7.863 0.059 0.143-0.01 0.305-0.152 0.362-0.141 0.059-0.304-9e-3 -0.362-0.152-1.034-2.539-1.423-5.236-1.761-8.006-0.722-5.913-1.199-11.928-1.419-17.876-0.195-5.265-0.171-10.796 1.223-15.724-1.686 0.755-3.355 1.422-5.026 2.002-5.905 2.052-12.175 3.137-18.238 4.187-6.292 1.09-12.798 2.216-18.874 4.423-0.144 0.053-0.303-0.022-0.356-0.166-0.052-0.144 0.022-0.304 0.166-0.356 6.123-2.224 12.653-3.355 18.969-4.449 6.042-1.046 12.289-2.127 18.151-4.164 1.813-0.63 3.622-1.357 5.456-2.196 0.052-0.058 0.119-0.101 0.198-0.101 4e-3 0 9e-3 1e-3 0.013 2e-3 5.383-2.487 10.984-5.943 17.5-10.769 3.258-2.414 6.415-4.93 9.494-7.517-4.249-0.887-8.057-2.195-11.74-3.464l-1.257-0.433c-6.551-2.245-13.537-4.417-20.599-4.109-0.145 3e-3 -0.283-0.112-0.29-0.265-6e-3 -0.154 0.113-0.283 0.266-0.29 7.16-0.307 14.202 1.876 20.803 4.139l1.258 0.432c3.677 1.268 7.475 2.577 11.704 3.457-0.91-8.034-2.244-16.108-3.964-24.004-0.032-0.149 0.063-0.297 0.213-0.33 0.019-4e-3 0.039-7e-3 0.059-7e-3 0.128 0 0.243 0.089 0.271 0.219 1.725 7.918 3.06 16.014 3.972 24.07 35.726-30.288 59.576-71.458 76.65-104.82 0.049-0.096 0.147-0.151 0.248-0.151 0.042 0 0.086 9e-3 0.126 0.03 0.137 0.07 0.191 0.238 0.121 0.374"/>
</g>
<g transform="translate(494.78 392.43)">
<path d="m0 0c-0.794-2.035-2.784-3.777-4.952-4.335-2.088-0.538-3.734-0.481-5.032 0.173-0.451 0.228-0.848 0.539-1.189 0.908 3.329 2.988 6.884 5.78 10.575 8.305 0.988-1.361 1.27-3.329 0.598-5.051m-11.524-2.822c-1.098 1.513-1.374 3.732-0.502 5.583 1.075 2.279 3.652 3.897 6.568 4.121 0.226 0.018 0.448 0.026 0.666 0.026 1.201 0 2.25-0.265 3.062-0.78 0.286-0.181 0.543-0.402 0.775-0.649-3.688-2.525-7.241-5.316-10.569-8.301m10.091 9.42c-1.06 0.672-2.465 0.962-4.068 0.838-3.111-0.239-5.869-1.982-7.027-4.438-1.319-2.797-0.247-6.375 2.294-7.656 0.791-0.399 1.689-0.597 2.713-0.597 0.819 0 1.719 0.127 2.707 0.382 2.37 0.61 4.463 2.443 5.332 4.671 0.976 2.502 0.119 5.489-1.951 6.8"/>
</g>
<g transform="translate(163.43 358.65)">
<path d="m0 0c4.074-1.872 8.281-3.79 12.703-5.165 1.16 7.785 1.89 15.713 2.17 23.58-5.608-5.569-10.609-11.76-14.873-18.415m12.93-5.803c-0.028 0-0.055 4e-3 -0.081 0.012-4.675 1.423-9.096 3.455-13.371 5.419-0.073 0.034-0.128 0.097-0.15 0.174-0.023 0.077-0.012 0.16 0.032 0.228 4.449 6.988 9.704 13.472 15.62 19.271 0.081 0.08 0.201 0.102 0.306 0.056 0.104-0.046 0.17-0.15 0.166-0.263-0.265-8.226-1.022-16.522-2.248-24.661-0.012-0.08-0.058-0.15-0.126-0.193-0.045-0.029-0.097-0.043-0.148-0.043"/>
</g>
<g transform="translate(706.52 156.58)">
<path d="m0 0c0.334-7.898 1.537-15.765 3.58-23.399 4.128 1.749 8.382 3.565 12.376 5.903-4.965 6.101-10.329 11.982-15.956 17.496m3.394-24.057c-0.042 0-0.083 9e-3 -0.122 0.028-0.072 0.035-0.126 0.099-0.146 0.177-2.164 7.995-3.412 16.247-3.709 24.528-4e-3 0.114 0.062 0.218 0.165 0.264 0.105 0.046 0.226 0.024 0.307-0.055 5.901-5.744 11.521-11.895 16.703-18.281 0.05-0.063 0.071-0.145 0.057-0.224-0.014-0.08-0.062-0.149-0.132-0.19-4.201-2.493-8.682-4.391-13.014-6.225-0.035-0.015-0.072-0.022-0.109-0.022"/>
</g>
<g transform="translate(215.87 379.26)">
<path d="m0 0c-0.364-0.416-0.653-0.883-0.848-1.384-0.379-0.975-0.248-2.259 0.625-2.635 0.297-0.128 0.649-0.114 0.99 0.039 0.41 0.184 0.735 0.533 0.869 0.934 0.243 0.729-9e-3 1.637-0.641 2.314-0.277 0.296-0.615 0.542-0.995 0.732m0.208-4.662c-0.225 0-0.445 0.045-0.651 0.133-1.177 0.506-1.395 2.131-0.923 3.346 0.196 0.504 0.477 0.977 0.827 1.405-0.712 0.237-1.524 0.301-2.345 0.167-1.204-0.199-2.445-0.78-3.905-1.83-0.902-0.648-1.986-1.548-2.368-2.762-0.046-0.146-0.203-0.227-0.349-0.181s-0.227 0.202-0.181 0.348c0.431 1.37 1.602 2.348 2.573 3.046 0.964 0.694 2.443 1.648 4.14 1.927 0.997 0.164 1.988 0.06 2.839-0.271 0.802 0.795 1.859 1.386 3.036 1.663 2.164 0.508 4.198-0.067 5.525-0.638 1.109-0.478 3.032-1.573 3.439-3.54 0.031-0.15-0.066-0.297-0.216-0.329-0.15-0.029-0.298 0.066-0.329 0.216-0.355 1.721-2.104 2.707-3.114 3.142-1.25 0.539-3.162 1.082-5.178 0.608-1.005-0.236-1.914-0.722-2.623-1.374 0.376-0.206 0.713-0.463 0.996-0.767 0.77-0.823 1.069-1.949 0.762-2.869-0.182-0.546-0.619-1.019-1.169-1.265-0.259-0.116-0.526-0.175-0.786-0.175"/>
</g>
<g transform="translate(674.47 259.24)">
<path d="m0 0c-2.893 0.6-5.895-0.098-8.694-1.042-12.331-4.159-22.884-13.345-28.701-24.986 14.274-1.474 29.345 2.421 39.568 12.388 2.179 2.124 4.241 4.892 3.841 7.908-0.389 2.929-3.121 5.132-6.014 5.732m-52.984-26.947c3.998-0.584 8.062-0.453 12.101-0.321 0.341 1.168-0.424 2.532-1.213 3.593-4.139 5.568-9.811 9.984-16.222 12.634-2.301 0.951-5.027 1.65-7.192 0.421-2.044-1.161-2.912-3.824-2.448-6.129s2.03-4.258 3.86-5.733c3.146-2.536 7.116-3.881 11.114-4.465m22.592-0.926c-2.197 0.324-4.541 0.454-6.354-0.6 2.586-7.514 7.253-14.299 13.345-19.401 2.628-2.2 5.705-4.157 9.129-4.309 3.424-0.151 7.138 2.099 7.562 5.499 0.245 1.969-0.607 3.91-1.651 5.597-4.652 7.519-13.285 11.923-22.031 13.214m-17.111-12.577c-1.99-3.834-3.252-8.131-3.02-12.445 0.093-1.725 0.624-3.705 2.213-4.384 2.004-0.856 4.124 0.923 5.407 2.685 5.189 7.122 6.836 16.7 4.323 25.146-0.505-0.047-0.985-0.316-1.438-0.458-2.8-3.289-5.496-6.709-7.485-10.544m21.451 39.468c1.343 5.602 1.719 11.983-1.644 16.66-1.021 1.421-2.546 2.691-4.296 2.636-1.212-0.038-2.313-0.709-3.256-1.472-4.865-3.934-6.819-10.461-7.471-16.683-0.913-8.704 0.229-17.616 3.307-25.808 6.672 6.737 11.146 15.427 13.36 24.667" fill="#ed6c71"/>
</g>
<g transform="translate(634.05 230.26)">
<path d="m0 0c0.158 0.084 0.2 0.23 0.136 0.369s-0.229 0.2-0.369 0.136c-10.449-4.819-20.306-11.923-29.301-21.127-9.457-9.677-15.753-19.666-18.714-29.688-0.043-0.148 0.041-0.302 0.188-0.346 0.07-0.02 0.143-0.012 0.204 0.019 0.066 0.034 0.119 0.093 0.141 0.17 2.935 9.934 9.185 19.845 18.578 29.456 8.948 9.156 18.75 16.23 29.137 21.011m39.17 20.449-35.632-17.551c-0.116-0.066-0.194-0.234-0.127-0.372 0.068-0.138 0.235-0.194 0.373-0.127l35.632 17.551 3e-3 2e-3c0.135 0.068 0.191 0.234 0.123 0.37-0.068 0.138-0.234 0.195-0.372 0.127m-30.594 16.982c-0.151 0.015-0.288-0.096-0.304-0.249-1.16-11.754-3.418-23.467-6.714-34.813-0.042-0.147 0.042-0.301 0.189-0.344 0.071-0.02 0.143-0.012 0.204 0.019 0.066 0.033 0.118 0.093 0.141 0.17 3.305 11.379 5.57 23.126 6.733 34.914 0.015 0.152-0.096 0.288-0.249 0.303m-9.179-36.521c0.088-0.078 0.211-0.091 0.311-0.041 0.03 0.015 0.058 0.036 0.081 0.063 0.102 0.114 0.093 0.289-0.021 0.392-5.458 4.891-12.008 8.729-18.942 11.099-0.146 0.049-0.303-0.028-0.353-0.172-0.049-0.146 0.028-0.304 0.173-0.353 6.864-2.347 13.349-6.147 18.751-10.988m1.616-0.9c-1.212-7.591-3.138-15.113-5.724-22.358-0.052-0.144 0.024-0.303 0.169-0.354 0.074-0.028 0.153-0.02 0.218 0.013 0.062 0.031 0.111 0.085 0.136 0.155 2.598 7.276 4.533 14.832 5.75 22.457 0.025 0.151-0.079 0.293-0.231 0.317-0.148 0.024-0.293-0.077-0.318-0.23m2.786 0.688c-0.123 0.093-0.296 0.068-0.39-0.054-0.092-0.122-0.068-0.297 0.055-0.389l23.14-17.497c0.088-0.066 0.202-0.072 0.293-0.026 0.037 0.018 0.07 0.045 0.096 0.08 0.093 0.122 0.069 0.297-0.054 0.389z"/>
</g>
<g transform="translate(638.39 229.4)">
<path d="m0 0c-0.635-1.188-2.162-1.778-3.463-1.425-1.3 0.353-2.295 1.557-2.508 2.887-0.261 1.635 0.686 3.406 2.218 4.033 1.532 0.628 3.493-0.01 4.306-1.452 0.813-1.441 0.303-3.499-0.553-4.043" fill="#fcab00"/>
</g>
<g transform="translate(436.75 402.44)">
<path d="m0 0c0.087-1.787 0.71-3.545 1.769-4.987 0.713-0.972 1.614-1.799 2.279-2.803 0.666-1.005 1.082-2.285 0.601-4.463-4.629-9.385-10.178-18.281-15.717-27.16-0.793-1.271-1.611-2.571-2.796-3.489-1.513-1.172-3.478-1.603-5.389-1.706-5.04-0.271-9.976 1.51-14.472 3.803-4.61 2.351-9.084 5.429-11.645 9.925-0.699 1.228-1.248 2.724-0.715 4.265 4.733 10.655 10.831 20.702 18.097 29.819 0.352 0.442 0.712 0.887 1.168 1.22 1.678 1.226 3.993 0.607 6.053 0.33 2.867-0.385 5.955 0.074 8.256 1.827 3.995-2.471 8.173-4.647 12.511-6.581" fill="#ee5952"/>
</g>
<g transform="translate(407.68 395.79)">
<path d="m0 0c-3.128-4.9-6.256-9.799-9.383-14.699-0.503-0.787-1.011-1.586-1.294-2.476-0.486-1.526-0.266-3.203 0.262-4.715 1.062-3.037 3.325-5.563 6.018-7.322 2.693-1.76 5.801-2.8 8.949-3.458 2.305-0.481 4.927-0.7 6.804 0.722 0.848 0.643 1.443 1.556 2.021 2.45 3.296 5.097 6.593 10.196 9.62 15.458 0.173 0.301 0.349 0.615 0.376 0.961 0.023 0.301-0.07 0.599-0.188 0.876-0.716 1.685-2.301 2.814-3.836 3.811-5.997 3.894-12.519 7.191-19.349 8.392" fill="#fbb4b8"/>
</g>
<g transform="translate(441.72 399.9)">
<path d="m0 0c-6.306 1.755-12.338 4.489-17.815 8.074-1.884 1.233-3.723 2.585-5.174 4.308-0.247 0.292-0.492 0.62-0.52 1.002-0.02 0.278 0.079 0.55 0.18 0.811 0.593 1.534 1.296 3.025 2.103 4.458 0.265 0.472 0.552 0.949 0.984 1.275 0.47 0.354 1.069 0.495 1.655 0.538 1.301 0.097 2.594-0.238 3.841-0.62 7.286-2.229 14.04-6.176 19.558-11.429 0.34-0.324 0.693-0.685 0.771-1.147 0.063-0.372-0.064-0.747-0.203-1.096-1.044-2.632-2.891-4.938-5.38-6.174" fill="#00cdcc"/>
</g>
<g transform="translate(442.63 406.9)">
<path d="m0 0c-0.029 0-0.059 5e-3 -0.087 0.014-4.49 1.49-8.913 3.318-13.144 5.432-2.249 1.124-4.772 2.515-6.247 4.814-0.083 0.129-0.046 0.301 0.083 0.384 0.13 0.083 0.301 0.045 0.384-0.084 1.399-2.18 3.845-3.526 6.028-4.617 4.208-2.102 8.606-3.92 13.07-5.401 0.146-0.049 0.225-0.206 0.177-0.352-0.039-0.116-0.147-0.19-0.264-0.19"/>
</g>
<g transform="translate(407.31 395.57)">
<path d="m0 0c-0.59-1.637 0.706-3.314 1.988-4.491 4.321-3.965 9.626-6.85 15.303-8.32 1.211-0.314 2.438-0.564 3.665-0.803 1.007-0.196 2.26-0.292 2.847 0.549 0.357 0.512 0.312 1.222 0.043 1.785-0.27 0.562-0.73 1.008-1.188 1.43-4.834 4.457-10.646 7.847-16.904 9.862-1.498 0.483-3.066 0.891-4.63 0.715-0.438-0.049-0.967-0.29-1.124-0.727" fill="#f8a3a8"/>
</g>
<g transform="translate(585.04 239.53)">
<path d="m0 0c-0.722-1.671-2.138-3.098-3.989-4.018-1.585-0.787-3.491-1.216-5.665-1.272-1.92-0.051-3.299 0.243-4.374 0.919-1.092 0.688-1.937 1.839-2.527 3.417 5.414 3.015 10.793 6.239 16.001 9.591 0.77-1.478 1.137-3.138 1.198-4.59 0.066-1.545-0.151-2.906-0.644-4.047m-16.857-0.043c-0.724 2.545-0.506 5.157-0.198 6.9 0.392 2.209 2.572 3.653 4.331 4.474 1.292 0.603 3.353 1.364 5.524 1.364 1.186 0 2.406-0.227 3.551-0.831 1.231-0.65 2.152-1.628 2.823-2.742-5.179-3.333-10.528-6.54-15.912-9.54-0.04 0.125-0.082 0.245-0.119 0.375m16.719 9.079c5e-3 0.058-5e-3 0.118-0.039 0.171-0.027 0.042-0.065 0.07-0.107 0.092-0.723 1.24-1.737 2.333-3.106 3.056-3.452 1.824-7.478 0.456-9.569-0.52-1.879-0.878-4.21-2.437-4.643-4.881-0.319-1.8-0.542-4.502 0.21-7.149 0.056-0.197 0.119-0.383 0.182-0.57-0.027-0.073-0.026-0.156 0.015-0.229 0.024-0.043 0.059-0.075 0.097-0.099 0.634-1.725 1.563-2.986 2.774-3.748 1.089-0.686 2.452-1.01 4.264-1.01 0.137 0 0.277 2e-3 0.42 5e-3 2.256 0.059 4.241 0.507 5.899 1.331 1.968 0.978 3.477 2.503 4.251 4.295 0.527 1.218 0.759 2.661 0.69 4.29-0.067 1.57-0.474 3.373-1.338 4.966"/>
</g>
<g transform="translate(117.32 267.76)">
<path d="m0 0c-0.106-0.292-0.351-0.533-0.6-0.75-0.569-0.497-1.237-0.958-2.103-1.453-3.778-2.156-8.247-3.153-12.583-2.803-1.28 0.103-2.379 0.307-3.358 0.625-1.158 0.377-1.938 0.886-2.385 1.557-0.532 0.798-0.585 1.775-0.607 2.814 0.391-0.526 0.942-0.973 1.615-1.279 1.069-0.487 2.278-0.578 3.32-0.604 0.225-5e-3 0.45-8e-3 0.675-8e-3 3.7 0 7.437 0.744 10.848 2.164 0.932 0.389 2.451 1.503 3.561 2.416 0.495 0.407 1.014 0.893 1.331 1.499 0.138-1.087 0.259-2.177 0.341-3.261 0.027-0.36 0.04-0.656-0.055-0.917m-21.149 3.493h1e-3c6.793 0.975 13.717 1.522 20.584 1.629-0.01-0.078-0.015-0.156-0.035-0.234-0.188-0.729-0.798-1.308-1.371-1.78-1.357-1.115-2.7-2.031-3.422-2.332-3.548-1.477-7.458-2.208-11.295-2.113-1.036 0.025-2.129 0.11-3.104 0.554-1.01 0.459-1.734 1.301-1.891 2.196-0.133 0.765 0.122 1.469 0.533 2.08m2.185 1.992c3.369 2.104 7.398 3.23 11.39 3.23 0.954 0 1.907-0.065 2.847-0.195 0.989-0.138 2.12-0.367 3.005-1.021 0.538-0.398 1.039-1.077 1.155-1.821-6.697-0.104-13.446-0.629-20.079-1.556 0.577 0.621 1.255 1.096 1.682 1.363m19.573-4.527c-0.134 1.762-0.342 3.541-0.619 5.29-0.019 0.116-0.107 0.202-0.215 0.226-0.257 0.599-0.689 1.118-1.167 1.472-0.985 0.728-2.2 0.977-3.258 1.124-5.001 0.695-10.325-0.44-14.608-3.113-1.145-0.716-2.938-2.134-3.009-4.001-0.02-0.046-0.032-0.095-0.024-0.148 0.075-0.514 0.085-1.065 0.095-1.598 0.021-1.155 0.043-2.349 0.705-3.342 0.519-0.779 1.394-1.361 2.676-1.777 1.02-0.332 2.16-0.545 3.485-0.652 0.581-0.046 1.165-0.069 1.749-0.069 3.883 0 7.786 1.023 11.153 2.945 0.899 0.513 1.596 0.995 2.193 1.516 0.305 0.266 0.608 0.569 0.757 0.979 0.144 0.395 0.112 0.813 0.087 1.148"/>
</g>
<g transform="translate(51.821 305.9)">
<path d="m0 0c-0.071 5.968-0.142 11.935-0.213 17.903-0.044 3.659-0.086 7.342 0.535 10.948 0.41 2.385 1.123 4.749 2.405 6.802 2.24 3.588 6.045 5.945 10.008 7.421 4.977 1.854 10.496 2.495 15.648 1.2 5.151-1.294 9.874-4.652 12.263-9.396 1.534-3.048 2.065-6.495 2.397-9.892 0.786-8.018 0.582-16.1 0.143-24.144-0.015-0.259-0.039-0.543-0.22-0.729-0.162-0.168-0.408-0.214-0.638-0.251-14.017-2.249-28.357-2.471-42.328 0.138" fill="#ee5952"/>
</g>
<g clip-path="url(#k)">
<g transform="translate(92.466 340.77)">
<path d="m0 0c-1.747 3.469-4.745 6.193-8.243 7.914 2.393-4.551 3.374-9.83 3.946-14.99 1.054-9.511 0.95-19.105 0.792-28.676 1.733 0.214 3.463 0.459 5.187 0.736 0.23 0.037 0.477 0.083 0.639 0.25 0.18 0.187 0.205 0.47 0.219 0.73 0.44 8.044 0.643 16.126-0.142 24.144-0.333 3.397-0.863 6.844-2.398 9.892" fill="#ee5952"/>
</g>
</g>
<g transform="translate(84.352 332.16)">
<path d="m0 0h-5.559v5.559h-10.607v-5.559h-5.558v-10.607h5.558v-5.559h10.607v5.559h5.559z" fill="#fff"/>
</g>
<g transform="translate(54.34 307.3)">
<path d="m0 0c12.499 0.187 24.997 0.373 37.496 0.56 2.049 0.03 4.273 6e-3 5.894-1.248 1.284-0.992 1.969-2.707 1.72-4.312-0.248-1.604-1.419-3.032-2.943-3.59-0.851-0.312-1.772-0.363-2.677-0.4-2.783-0.112-5.569-0.114-8.354-0.115l-31.023-0.018c-1.799-1e-3 -3.673 0.015-5.283 0.817s-2.855 2.646-2.359 4.375c0.264 0.924 0.969 1.662 1.745 2.23 1.624 1.192 3.667 1.669 5.784 1.701" fill="#3f2532"/>
</g>
<g transform="translate(362.92 420.08)">
<path d="m0 0c-0.127 0.05-0.236 0.147-0.299 0.281-0.131 0.278-0.011 0.609 0.266 0.739 5.986 2.812 12.106 5.543 18.191 8.118 0.282 0.12 0.609-0.012 0.728-0.295 0.12-0.283-0.012-0.609-0.295-0.728-6.071-2.57-12.178-5.295-18.151-8.101-0.144-0.068-0.303-0.068-0.44-0.014"/>
</g>
<g transform="translate(286.28 399.07)">
<path d="m0 0c21.129 8.941 42.258 17.883 63.387 26.824 0.747 0.316 1.514 0.637 2.325 0.675 0.934 0.043 1.84-0.293 2.715-0.624 3.616-1.368 7.233-2.735 10.849-4.103-0.68-4.697-1.566-9.365-2.656-13.985-0.13-0.55-0.274-1.123-0.649-1.546-0.353-0.4-0.866-0.613-1.36-0.814-22.188-9.026-44.099-18.73-65.694-29.095-3.854 7.372-6.945 15.142-8.917 22.668" fill="#c0dbf9"/>
</g>
<g transform="translate(285 395.7)">
<path d="m0 0c-9.863-4.35-19.727-8.699-29.59-13.049 1.696-6.044 4.241-11.849 7.537-17.192 9.632 4.414 19.263 8.827 28.895 13.24-1.052 6.275-3.399 12.33-6.842 17.001" fill="#ee5952"/>
</g>
<g transform="translate(352.51 403.93)">
<path d="m0 0-3.134 6.951c-0.063 0.14-0.228 0.202-0.368 0.139-0.139-0.063-0.202-0.228-0.139-0.367l3.134-6.951c0.031-0.069 0.087-0.119 0.152-0.145 0.067-0.026 0.145-0.027 0.216 6e-3 0.14 0.062 0.202 0.227 0.139 0.367m-14.556 3.04c-0.08 0.131-0.252 0.171-0.383 0.091-0.13-0.081-0.171-0.252-0.091-0.383 1.341-2.174 2.431-4.505 3.24-6.928 0.027-0.081 0.088-0.141 0.162-0.17 0.059-0.024 0.125-0.027 0.19-6e-3 0.145 0.049 0.224 0.207 0.175 0.352-0.822 2.464-1.93 4.834-3.293 7.044m-10.013-4.648c-0.066 0.138-0.233 0.196-0.371 0.13-0.138-0.067-0.196-0.233-0.129-0.371l3.251-6.734c0.031-0.066 0.085-0.113 0.148-0.138 0.07-0.027 0.15-0.027 0.222 8e-3 0.139 0.067 0.197 0.233 0.13 0.371zm-10.444-4.322c-0.052 0.146-0.211 0.221-0.355 0.169-0.145-0.051-0.22-0.21-0.169-0.355l2.66-7.482c0.028-0.079 0.088-0.137 0.16-0.166 0.06-0.024 0.129-0.026 0.195-3e-3 0.144 0.051 0.22 0.21 0.168 0.355zm-10.395-3.918c-0.058 0.142-0.22 0.21-0.362 0.153-0.142-0.058-0.21-0.22-0.153-0.362 1.102-2.717 2.416-5.376 3.905-7.902 0.033-0.056 0.082-0.096 0.137-0.118 0.077-0.03 0.167-0.026 0.244 0.019 0.132 0.078 0.176 0.248 0.098 0.381-1.476 2.503-2.777 5.137-3.869 7.829"/>
</g>
<g clip-path="url(#i)">
<g transform="translate(259.61 371.56)">
<path d="m0 0c1.008-2.09 2.123-4.13 3.341-6.105 9.632 4.413 19.264 8.826 28.895 13.24-0.422 2.518-1.056 4.999-1.883 7.372-10.264-4.522-20.386-9.363-30.353-14.507" fill="#ee5952"/>
</g>
</g>
<g transform="translate(296.18 375.32)">
<path d="m0 0c-2.783 8.413-5.959 16.696-9.513 24.813-0.486 1.112-1.4 2.435-2.567 2.102-0.733-0.209-1.134-1.052-1.092-1.814 0.042-0.761 0.19-1.496 0.391-2.001 3.101-7.754 6.201-15.508 9.302-23.262 0.304-0.759 0.634-1.555 1.28-2.057s1.71-0.563 2.2 0.092c0.442 0.592 0.231 1.426-1e-3 2.127m-31.657-9.68c-2.494 5.864-5.023 11.714-7.587 17.548-0.295 0.672-0.726 1.396-1.143 2.115s-1.141 1.393-1.965 1.287c-0.806-0.104-1.349-0.947-1.398-1.757-0.049-0.811 0.273-1.593 0.59-2.341 1.053-2.488 2.107-4.976 3.16-7.464 0.9-2.124 1.799-4.248 2.698-6.372 0.88-2.08 1.776-4.186 3.152-5.977 0.366-0.478 0.826-0.963 1.424-1.024 0.833-0.086 1.534 0.737 1.632 1.569 0.098 0.831-0.235 1.645-0.563 2.416" fill="#3f2532"/>
</g>
<g transform="translate(563.5 359.53)">
<path d="m0 0 26.358-23.19c2.863-2.519 5.781-5.105 7.643-8.433 1.862-3.327 2.498-7.596 0.646-10.929-1.357-2.444-3.873-4.078-6.534-4.934-1.863-0.6-3.86-0.862-5.791-0.542-2.987 0.495-5.565 2.313-7.978 4.14-7.769 5.882-15.049 12.379-22.319 18.867-2.642 2.358-5.298 4.731-7.515 7.492-2.581 3.212-4.598 7.313-3.771 11.349 0.348 1.698 1.187 3.273 2.289 4.61 2.061 2.5 5.111 4.198 8.338 4.484 3.227 0.285 6.47-1.01 8.634-2.914" fill="#fff"/>
</g>
<g transform="translate(591.62 312.04)">
<path d="m0 0c2.127 0.684 4.15 1.875 5.574 3.57-5.472-2.064-12.436 0.817-18.374 5.314-5.947 4.502-19.879 16.311-26.675 24.126-6.774 7.79-5.915 12.494-5.91 12.524-0.952-1.252-1.674-2.689-1.989-4.228-0.827-4.036 1.19-8.137 3.77-11.349 2.218-2.761 4.874-5.133 7.516-7.491 7.27-6.489 14.55-12.985 22.319-18.867 2.413-1.827 4.991-3.645 7.977-4.14 1.931-0.32 3.929-0.059 5.792 0.541" fill="#c0dbf9"/>
</g>
<g transform="translate(598.15 316.97)">
<path d="m0 0c1.852 3.333 1.216 7.602-0.646 10.929-1.862 3.328-4.78 5.914-7.643 8.433-4.091 3.599-8.182 7.198-12.273 10.798-3.631-2.13-7.031-4.732-9.68-8.003-2.615-3.227-4.47-7.141-4.882-11.272 4.821-4.221 9.714-8.354 14.821-12.22 2.413-1.828 4.991-3.646 7.978-4.141 1.931-0.32 3.928-0.058 5.791 0.542 2.661 0.856 5.177 2.491 6.534 4.934" fill="#ee5952"/>
</g>
<g clip-path="url(#h)">
<g transform="translate(592.85 312.51)">
<path d="m0 0c0.17 0.072 0.338 0.147 0.505 0.226 0.148 0.07 0.295 0.143 0.441 0.219 0.114 0.059 0.226 0.122 0.339 0.185 0.177 0.099 0.354 0.198 0.526 0.305 0.016 0.01 0.031 0.021 0.047 0.031 0.934 0.59 1.782 1.302 2.484 2.137v1e-3c-5.472-2.064-12.435 0.817-18.374 5.314-3.262 2.47-8.926 7.139-14.498 12.14-0.664-1.669-1.114-3.417-1.292-5.205 2.295-2.009 4.608-3.996 6.951-5.946 0.277-0.231 0.556-0.459 0.834-0.689 0.865-0.714 1.735-1.421 2.61-2.123 0.321-0.258 0.641-0.516 0.964-0.772 1.145-0.908 2.296-1.808 3.462-2.69 2.413-1.827 4.991-3.646 7.978-4.14 1.931-0.321 3.928-0.059 5.791 0.541 0.299 0.096 0.596 0.206 0.89 0.321 0.115 0.046 0.228 0.096 0.342 0.145" fill="#ee5952"/>
</g>
</g>
<g transform="translate(87.621 141.47)">
<path d="m0 0c5.241 8.559 10.482 17.118 15.724 25.678 2.482 4.053 5.305 8.391 9.797 9.947 2.929 1.014 6.345 0.609 8.876-1.182 2.531-1.79 4.063-4.956 3.759-8.041-0.187-1.9-1.011-3.673-1.863-5.381-4.547-9.113-10.248-17.592-15.932-26.042-1.265-1.881-2.532-3.765-3.958-5.527-0.944-1.167-1.971-2.292-3.232-3.106-3.671-2.371-9.001-1.452-11.895 1.822-2.893 3.274-3.319 8.495-1.276 11.832" fill="#ebf7fa"/>
</g>
<g transform="translate(119.14 163.26)">
<path d="m0 0c-4.263-6.607-16.966-27.183-20.318-30.904-3.298-3.661-9.849-2.602-10.26-2.303 0.109-0.139 0.216-0.281 0.334-0.414 2.893-3.274 8.224-4.192 11.894-1.822 1.261 0.814 2.289 1.939 3.232 3.106 1.426 1.763 2.694 3.647 3.959 5.528 5.684 8.45 11.385 16.929 15.931 26.041 0.853 1.709 1.676 3.481 1.863 5.382 0.304 3.085-1.228 6.25-3.759 8.04 0 0 1.387-6.047-2.876-12.654" fill="#c0dbf9"/>
</g>
<g transform="translate(114.7 146.59)">
<path d="m0 0c-3.374-0.565-6.85 0.272-9.984 1.643-1.854 0.812-3.652 1.83-5.068 3.276s-2.428 3.362-2.488 5.386l-0.079 0.014c-3.152-5.147-6.304-10.293-9.455-15.44-2.044-3.337-1.617-8.558 1.276-11.832s8.224-4.193 11.895-1.822c1.26 0.814 2.288 1.939 3.232 3.106 1.426 1.762 2.693 3.646 3.958 5.527 2.261 3.361 4.523 6.728 6.716 10.136z" fill="#ee5952"/>
</g>
<g clip-path="url(#g)">
<g transform="translate(114.7 146.59)">
<path d="m0 0c-1.981-0.331-3.997-0.178-5.959 0.282-4.161-6.49-8.224-12.643-9.913-14.518-3.298-3.661-9.849-2.602-10.26-2.303 0.11-0.14 0.217-0.281 0.334-0.414 2.893-3.274 8.224-4.193 11.895-1.822 1.26 0.814 2.288 1.939 3.232 3.106 1.426 1.762 2.693 3.646 3.958 5.527 2.261 3.361 4.523 6.728 6.716 10.136z" fill="#ee5952"/>
</g>
</g>
<g transform="translate(182.31 308.04)">
<path d="m0 0c10.377 8.568 20.753 17.136 31.13 25.704 2.742 2.265 5.597 4.682 6.861 8.007 1.545 4.066 0.202 9.008-3.076 11.867s-8.238 3.543-12.241 1.842c-2.46-1.046-4.498-2.86-6.5-4.632-9.001-7.971-18.216-15.702-27.63-23.182-1.693-1.344-3.417-2.708-4.654-4.479-3.061-4.381-2.274-11.009 1.728-14.551 4.001-3.542 10.733-3.589 14.382-0.576" fill="#ebf7fa"/>
</g>
<g transform="translate(213.44 333.75)">
<path d="m0 0c2.743 2.265 5.597 4.682 6.861 8.007 1.17 3.079 0.681 6.658-1.047 9.457 5e-3 -0.05 0.475-4.818-7.046-11.493-7.561-6.712-30.752-25.146-34.235-27.1-3.482-1.953-8.428-3.765-11.433-2.479 0.409-0.55 0.87-1.062 1.388-1.521 4.002-3.542 10.733-3.589 14.382-0.575 10.377 8.568 20.753 17.136 31.13 25.704" fill="#c0dbf9"/>
</g>
<g transform="translate(194.99 333.16)">
<path d="m0 0c-2.764 3.125-6.838 5.047-11.006 5.208-4.335-3.625-8.711-7.201-13.136-10.717-1.692-1.344-3.416-2.707-4.654-4.479-3.061-4.38-2.273-11.008 1.728-14.551 4.002-3.542 10.733-3.589 14.382-0.576 5.506 4.547 11.012 9.093 16.518 13.64 0.324 4.13-1.087 8.371-3.832 11.475" fill="#fcab00"/>
</g>
<g clip-path="url(#f)">
<g transform="translate(198.01 327.94)">
<path d="m0 0c-8.682-6.977-17.942-14.143-20.041-15.321-3.482-1.953-8.428-3.765-11.433-2.479 0.2-0.269 0.413-0.529 0.639-0.778l0.015-0.018c0.231-0.253 0.475-0.496 0.734-0.724 4.001-3.543 10.733-3.59 14.382-0.576 5.506 4.546 11.012 9.092 16.518 13.639 0.165 2.112-0.126 4.253-0.814 6.257" fill="#fcab00"/>
</g>
</g>
<g transform="translate(495.16 147.11)">
<path d="m0 0c2.173 0.395 4.351 0.767 6.53 1.117-1.251-2.417-1.617-5.346-1.918-8.119-0.444-4.118-0.883-8.241-1.328-12.365-0.405-3.784-0.811-7.596-0.622-11.381-4.513 1.356-9.031 2.718-13.543 4.074-1.589 8.119-1.323 16.599 0.767 24.601 0.328 0.072 0.656 0.15 0.984 0.217 3.034 0.683 6.074 1.295 9.13 1.856" fill="#fff"/>
</g>
<g transform="translate(501.69 148.22)">
<path d="m0 0c-2.178-0.35-4.357-0.722-6.53-1.117-10.642 17.516-21.239 35.06-31.103 53.021-0.923 1.684-1.845 3.373-2.729 5.085 3.19-1.978 6.93-3.162 10.587-4.179 8.574-2.39 17.299-4.257 26.096-5.596 0.934-0.139 1.89-0.272 2.807-0.05 0.894 0.217 1.667 0.756 2.406 1.306 6.88 5.085 12.637 11.67 16.771 19.161 12.093-18.75 19.084-40.773 19.928-63.074-1.683-0.167-3.367-0.334-5.051-0.506-11.081-1.128-22.184-2.3-33.182-4.051" fill="#00cdcc"/>
</g>
<g transform="translate(443.18 273.65)">
<path d="m0 0c-7.419 7.802-13.782 17.172-15.405 27.819-1.628 10.648 2.462 22.651 11.815 27.997 0.856 0.489 1.773 0.945 2.395 1.712 0.65 0.8 0.895 1.839 1.184 2.829 1.784 6.074 5.941 11.264 10.986 15.082 5.046 3.823 10.948 6.357 16.966 8.308 8.764 2.834 18.061 4.49 27.203 3.39 4.462-0.534 8.88-1.723 13.37-1.584 2.635 0.083 5.274 0.622 7.875 0.233 2.962-0.444 5.63-2.073 7.891-4.04 9.292-8.063 12.215-21.334 12.059-33.637-0.105-8.403-1.911-17.65-8.074-23.124-0.061 0.184-0.117 0.367-0.173 0.55-2.645 8.564-5.74 17.039-7.357 25.33-17.05-9.186-36.25-14.36-55.605-14.977 1.617-8.313 0.111-17.194-4.157-24.507-2.106 1.767-4.752 2.901-7.497 3.095-4.779 0.345-9.647-2.167-12.137-6.257-1.395-2.284-2.062-5.096-1.417-7.691 0.045-0.172 0.089-0.339 0.145-0.506z"/>
</g>
<g transform="translate(611.65 167.8)">
<path d="m0 0c-7.447 14.221-16.86 27.514-28.625 38.434-4.985 4.623-10.586 8.913-17.172 10.608-5.824 1.501-11.948 0.856-17.961 0.717-9.441-0.211-18.911 0.873-28.063 3.218-1.39 0.361-2.801 0.755-4.129 1.306 1.494-2.034 2.928-4.113 4.295-6.23 12.093-18.75 19.084-40.773 19.928-63.074-1.683-0.167-3.367-0.334-5.051-0.506-11.081-1.128-22.184-2.3-33.182-4.051-1.25-2.417-1.617-5.346-1.917-8.119-0.445-4.118-0.884-8.241-1.328-12.365-0.406-3.784-0.812-7.596-0.623-11.381-4.512 1.356-9.03 2.718-13.543 4.074-3.701 1.111-7.396 2.228-11.097 3.339-2.873 5.802-5.785 11.643-8.886 17.372 6.807 1.901 13.765 3.246 20.784 4.012 0.316 0.034 0.633 0.067 0.95 0.095 3.034 0.683 6.074 1.295 9.13 1.856-10.642 17.516-21.239 35.06-31.103 53.021-0.923 1.684-1.845 3.373-2.729 5.085-1.823 3.534-3.49 7.146-4.707 10.914-17.499-9.019-39.711-10.031-53.582-24.074-8.819-8.93-12.648-21.973-12.259-34.521 0.389-12.542 4.623-24.69 10.092-35.988 4.834-9.986 10.669-19.495 17.377-28.331 6.83-8.986 15.31-17.727 26.341-20.1 6.869-1.478 14.004-0.311 20.901 1.017 29.592 5.702 58.611 14.41 86.453 25.947 2.978-0.895 5.962-1.795 8.941-2.69 9.803-2.951 19.795-5.93 30.026-5.735 10.236 0.189 20.928 4.073 26.869 12.403 3.512 4.93 5.101 11.009 5.64 17.033 1.451 16.222-4.223 32.293-11.77 46.714" fill="#fff"/>
</g>
<g transform="translate(531.45 298.63)">
<path d="m0 0c-0.061 0.183-0.117 0.367-0.172 0.55-2.645 8.564-5.741 17.039-7.358 25.33-17.049-9.186-36.249-14.36-55.605-14.977 1.617-8.313 0.111-17.194-4.157-24.507-2.106 1.767-4.751 2.901-7.497 3.095-4.779 0.345-9.647-2.167-12.136-6.257-1.395-2.284-2.062-5.096-1.417-7.691 0.044-0.172 0.088-0.339 0.144-0.506 0.739-2.339 2.456-4.284 4.34-5.89 2.973-2.535 6.491-4.441 10.237-5.541 0.783-0.233 1.594-0.439 2.222-0.956 0.684-0.561 1.051-1.411 1.362-2.234 1.661-4.407 2.478-9.075 3.167-13.732 1.245-8.413 2.034-17.377-1.289-25.14-2.123-1.523-4.357-2.857-6.674-4.051 1.217-3.768 2.884-7.38 4.707-10.915 3.19-1.978 6.93-3.162 10.586-4.179 8.575-2.389 17.3-4.257 26.097-5.596 0.934-0.139 1.889-0.272 2.806-0.05 0.895 0.217 1.667 0.756 2.407 1.306 6.879 5.085 12.637 11.67 16.771 19.161-1.367 2.117-2.801 4.196-4.296 6.23-1.344 0.555-2.611 1.272-3.684 2.256-4.229 3.868-4.129 10.286-5.735 15.877 3.629 0.589 7.185 1.634 10.531 3.106 3.156 1.39 6.18 3.135 8.764 5.419 6.718 5.929 9.914 15.11 10.253 24.068 0.333 8.769-1.801 17.433-4.374 25.824m-58.273-174.86c3.702-1.112 7.397-2.229 11.098-3.34-1.589 8.119-1.322 16.599 0.767 24.601 0.011 0.039 0.022 0.084 0.033 0.123-7.018-0.767-13.976-2.112-20.784-4.013 3.101-5.729 6.013-11.57 8.886-17.371" fill="#ed6c71"/>
</g>
<g transform="translate(462.88 176.19)">
<path d="m0 0c-1.358-3.069-2.717-6.138-4.076-9.207-0.207-0.468-0.418-0.97-0.33-1.474 0.087-0.503 0.456-0.903 0.808-1.273 4.953-5.192 9.914-10.392 15.31-15.122 2.012-1.763 4.159-3.492 6.628-4.46l0.749 0.107c-6.551 6.591-13.102 13.181-19.653 19.772-0.438 0.442-0.902 0.933-0.969 1.552-0.057 0.535 0.196 1.048 0.437 1.529 1.779 3.552 3.248 7.259 4.383 11.066-5.591-0.517-11.231-0.498-16.819 0.056-0.48 0.048-0.998 0.116-1.347 0.449-0.39 0.372-0.456 0.962-0.495 1.5-0.544 7.428-0.643 14.889-0.297 22.329-0.697-8.7-1.302-17.316-1.74-25.94 5.707-1.219 11.61-1.518 17.411-0.884m80.605 6.2c4.965-2.922 10.08-5.591 15.316-7.994-2.494-6.604-5.005-13.285-6.173-20.227l0.568 0.041c2.408 7.164 5.015 14.261 7.841 21.27-4.629 2.654-9.447 4.98-14.405 6.954 3.084 4.196 6.303 8.292 9.651 12.28-7.135 5.91-14.269 11.82-21.552 17.428 5.955-6.017 12.085-11.861 18.381-17.52-3.494-3.842-6.714-7.933-9.627-12.232m21.626-75.705c-18.317 2.506-46.275 9.063-67.27 14.343-5.268 1.322-10.098 2.561-14.221 3.634 0.161-1.417 0.384-2.829 0.656-4.229-3.701 1.111-7.397 2.228-11.098 3.34-0.695 1.4-1.389 2.806-2.095 4.212-2.195 4.407-4.44 8.819-6.791 13.16-7.208 13.303-15.41 26.002-26.335 36.132 13.181-13.865 20.972-32.392 28.302-50.275 0.239-0.589 0.489-1.234 0.312-1.845-0.15-0.506-0.562-0.884-0.962-1.229-3.584-3.056-7.797-5.273-11.67-7.963-3.873-2.684-7.53-6.03-9.225-10.431 2.94-0.806 5.88 1.023 8.453 2.662 6.035 3.829 12.47 7.03 19.172 9.52-4.713-5.246-8.252-11.543-10.286-18.295 6.101 1.556 7.68 9.909 13.081 13.149 4.101 2.45 9.314 1.378 13.949 0.227 19.511-4.829 39.017-9.658 58.523-14.487 1.45 0.578 2.895 1.167 4.334 1.767 2.979-0.895 5.963-1.795 8.942-2.69 9.803-2.95 19.794-5.929 30.025-5.735 10.236 0.189 20.928 4.074 26.869 12.404 1.873 2.629 3.201 5.585 4.107 8.691-8.908-6.913-28.547-9.919-56.772-6.062m0.333 47.675c3.095 0.016 6.191-0.05 9.28-0.234 8.42-0.494 16.867-1.856 24.863-4.473-4.618 4.834-11.386 7.413-18.066 8.508-1.656 0.272-3.368 0.478-4.874 1.228 0.828 2.951 4.713 4.362 5.241 7.38-3.262-1.001-6.13-3.251-7.869-6.185-1.401 1.311-1.767 3.345-2.24 5.207-1.495 5.89-4.668 11.197-7.802 16.405-0.806 1.339-1.723 2.773-3.19 3.317 0.711-6.096 2.651-11.992 3.551-18.066 0.645-4.329 0.756-8.719 1.106-13.087" fill="#c0dbf9"/>
</g>
<g transform="translate(499.49 140.13)">
<path d="m0 0-1.328-12.365c-0.398-3.711-0.808-7.549-0.626-11.355-4.816 1.498-9.256 2.888-12.991 4.061 0 3e-3 1e-3 6e-3 0 0.01-1.567 8.006-1.315 16.413 0.723 24.315l0.158 0.035c0.218 0.049 0.435 0.099 0.659 0.144 2.892 0.652 5.875 1.258 9.118 1.853 1.994 0.362 4.011 0.707 6.007 1.031-1.051-2.286-1.42-4.959-1.72-7.729m113.58 3.895c-10.484 6.002-23.382 9.492-38.333 10.373-12.152 0.716-24.361-0.319-34.898-1.351-1.667-0.165-3.335-0.33-5.003-0.5-11.307-1.151-22.354-2.328-33.197-4.053-2.169-0.349-4.368-0.725-6.536-1.119-3.252-0.597-6.242-1.204-9.136-1.857-0.221-0.045-0.443-0.095-0.664-0.145l-0.051-0.011c-0.029 0.025-0.063 0.045-0.102 0.056-0.142 0.038-0.282-0.035-0.334-0.168-0.102-0.054-0.165-0.166-0.146-0.287 6e-3 -0.039 0.021-0.074 0.041-0.106-2.018-7.871-2.28-16.225-0.763-24.199-5.883 1.849-9.877 3.116-10.577 3.338-2.909 5.875-5.777 11.618-8.839 17.276-6.773 12.506-16.391 28.356-30.766 40.011-0.12 0.098-0.295 0.079-0.391-0.041-0.097-0.119-0.079-0.294 0.04-0.39 14.3-11.595 23.88-27.384 30.629-39.845 3.076-5.684 5.956-11.456 8.882-17.363v-2e-3c1e-3 -1e-3 2e-3 -3e-3 2e-3 -4e-3l0.475-0.961c0.049-0.098 0.147-0.154 0.249-0.154 0.042 0 0.084 9e-3 0.124 0.029 0.137 0.068 0.193 0.235 0.124 0.372l-0.187 0.381c6.585-2.088 63.885-20.22 78.161-23.504 0.021-5e-3 0.042-7e-3 0.062-7e-3 0.127 0 0.241 0.087 0.271 0.215 0.034 0.15-0.059 0.299-0.208 0.333-8.858 2.038-34.332 9.809-53.932 15.903 0.017 0.038 0.027 0.079 0.025 0.123-0.189 3.785 0.223 7.625 0.621 11.338l1.328 12.364c0.31 2.862 0.688 5.617 1.831 7.897 10.783 1.711 21.772 2.882 33.021 4.027 1.667 0.17 3.334 0.336 5.05 0.505 10.466 1.025 22.648 2.058 34.761 1.345 14.865-0.877 27.68-4.342 38.09-10.301 0.044-0.024 0.091-0.036 0.138-0.036 0.096 0 0.19 0.05 0.241 0.14 0.077 0.133 0.03 0.302-0.103 0.378m-101.86 123.33c0.617 0 1.235 0.03 1.849 0.089 0.153 0.014 0.265 0.15 0.25 0.303s-0.15 0.263-0.303 0.25c-4.675-0.45-9.528 0.884-13.314 3.663-0.122 0.09-0.296 0.064-0.388-0.06-0.091-0.124-0.064-0.298 0.059-0.389 3.398-2.493 7.63-3.856 11.847-3.856m9.299 14.106c0.142-0.141 0.269-0.278 0.276-0.406 5e-3 -0.088-0.047-0.199-0.104-0.316-0.62-1.263-1.373-2.469-2.235-3.584-0.094-0.121-0.072-0.295 0.05-0.389 0.05-0.04 0.11-0.059 0.17-0.059 0.083 0 0.165 0.038 0.22 0.108 0.885 1.145 1.657 2.383 2.294 3.679 0.068 0.139 0.173 0.351 0.16 0.591-0.02 0.352-0.272 0.603-0.439 0.769-2.809 2.8-5.325 5.906-7.48 9.234-0.083 0.129-0.256 0.164-0.384 0.082-0.129-0.084-0.165-0.256-0.082-0.384 2.175-3.361 4.717-6.498 7.554-9.325"/>
</g>
<g transform="translate(527.45 315.43)">
<path d="m0 0c-0.61 1.091-1.753 1.815-2.961 2.137-1.208 0.323-2.484 0.285-3.726 0.142-3.189-0.366-6.504-1.555-8.361-4.174-0.313-0.442-0.586-0.937-0.628-1.478-0.043-0.54 0.195-1.131 0.681-1.371 0.589-0.291 1.297 7e-3 1.831 0.387 0.535 0.38 0.2 0.422 2.464 1.533 2.263 1.112 5.018 2.073 8.449 1.297 0.47-0.106 0.948-0.243 1.426-0.183 0.479 0.06 0.965 0.38 1.041 0.856 0.047 0.295-0.07 0.593-0.216 0.854m-35.931-5.055c-1.615 0.736-3.482 0.784-5.217 0.411-1.735-0.374-3.359-1.146-4.912-2.004-2.011-1.11-4.121-2.643-4.472-4.912-0.049-0.314-0.057-0.653 0.1-0.929 0.271-0.479 0.947-0.586 1.463-0.397 0.517 0.19 0.918 0.596 1.323 0.968 3.104 2.841 7.548 4.151 11.696 3.446 0.485-0.082 1.237-0.029 1.571 0.5s0.244 1.249-0.095 1.774c-0.339 0.526-0.887 0.883-1.457 1.143"/>
</g>
<g transform="translate(555.74 179.15)">
<path d="m0 0c-2.026 7.567-5.173 14.762-9.353 21.385-0.246 0.391-0.761 0.506-1.15 0.26-0.389-0.245-0.505-0.76-0.26-1.15 4.091-6.48 7.17-13.521 9.152-20.926 1.754-6.551 1.546-11.188-0.654-14.593-2.054-3.178-5.793-4.948-8.822-6.136-0.428-0.168-0.64-0.651-0.471-1.08 0.128-0.328 0.443-0.529 0.776-0.529 0.101 0 0.204 0.018 0.304 0.057 3.261 1.279 7.301 3.205 9.613 6.783 3.251 5.031 2.051 11.5 0.865 15.929m-21.509-21.883c-2.444 0.138-4.972 0.281-7.291 1.056-2.467 0.825-4.395 2.36-5.29 4.213-0.759 1.568-0.857 3.399-0.893 5.14-0.188 9.128 1.276 18.115 4.352 26.712 0.156 0.433-0.07 0.91-0.504 1.066-0.433 0.154-0.91-0.071-1.065-0.505-3.144-8.788-4.642-17.976-4.45-27.308 0.038-1.84 0.154-3.96 1.059-5.831 1.106-2.287 3.33-4.087 6.263-5.068 2.53-0.846 5.171-0.995 7.724-1.14 0.017-1e-3 0.033-1e-3 0.048-1e-3 0.439 0 0.807 0.343 0.832 0.786 0.026 0.46-0.325 0.854-0.785 0.88" fill="#ed6c71"/>
</g>
<g transform="translate(458.37 165.1)">
<path d="m0 0c2.26 3.387 6.407 5.473 10.461 5.093s7.803-3.297 9.006-7.187c1.553-5.021-1.46-10.852-6.265-12.981-4.573-2.027-10.587-0.626-13.331 3.556-2.395 3.649-1.682 8.805 0.129 11.519" fill="#ed6c71"/>
</g>
<g transform="translate(463.38 155.68)">
<path d="m0 0c-0.049 0.035-0.097 0.07-0.144 0.106-1.848 1.411-2.319 4.061-1.424 6.135 0.613 1.417 1.859 2.499 3.263 3.141 2.017 0.924 4.525 0.957 6.359-0.291 1.155-0.786 1.977-2.044 2.234-3.417 0.362-1.94-0.439-4.022-1.925-5.32-1.487-1.298-3.586-1.816-5.532-1.489-0.932 0.156-2.035 0.575-2.831 1.135"/>
</g>
<g transform="translate(466.52 233.36)">
<path d="m0 0c-7.893-5.437-13.01-11.618-15.208-18.371-1.238-3.801-1.687-8.153-1.412-13.695 0.639-12.878 4.554-25.232 11.323-35.726 0.265-0.412 0.712-0.636 1.168-0.636 0.259 0 0.52 0.072 0.752 0.222 0.645 0.416 0.831 1.276 0.414 1.921-6.504 10.085-10.267 21.965-10.882 34.357-0.258 5.193 0.148 9.228 1.278 12.697 2.006 6.159 6.764 11.86 14.143 16.943 0.632 0.435 0.791 1.3 0.356 1.932s-1.301 0.79-1.932 0.356m66.086-27.711c-3.455 13.139-13.406 24.513-25.968 29.684-0.707 0.292-1.52-0.046-1.813-0.756-0.292-0.709 0.046-1.521 0.756-1.813 11.774-4.847 21.099-15.507 24.338-27.822 0.164-0.623 0.726-1.036 1.342-1.036 0.117 0 0.236 0.015 0.355 0.046 0.741 0.195 1.185 0.955 0.99 1.697" fill="#ed6c71"/>
</g>
<g transform="translate(524.26 301.41)">
<path d="m0 0c-0.429 2.577-2.092 4.448-3.715 4.177-1.623-0.27-2.59-2.578-2.161-5.155s2.092-4.448 3.715-4.178c1.622 0.271 2.59 2.579 2.161 5.156m-35.763-3.112c-1.622-0.271-2.59-2.579-2.161-5.156s2.092-4.448 3.715-4.177c1.623 0.27 2.59 2.578 2.161 5.155s-2.092 4.448-3.715 4.178"/>
</g>
<g transform="translate(546.04 156.83)">
<path d="m0 0c-0.09 0.236-0.222 0.447-0.297 0.691-0.107 0.349-0.197 0.704-0.295 1.056-0.019 0.068-0.041 0.142-0.097 0.186-0.064 0.051-0.154 0.049-0.235 0.045l-3.19-0.166c-0.241-0.013-0.517-0.044-0.655-0.242-0.112-0.16-0.092-0.376-0.053-0.568 0.117-0.571 0.358-1.108 0.504-1.671 0.082-0.316 0.134-0.639 0.185-0.961 0.035-0.222 0.079-0.464 0.248-0.613 0.225-0.2 0.574-0.152 0.859-0.055 0.803 0.271 1.482 0.816 2.237 1.199 0.424 0.215 1.003 0.538 0.789 1.099m-8.542 1.366c-0.041 0.086-0.094 0.17-0.174 0.221-0.098 0.062-0.221 0.067-0.337 0.065-0.94-0.022-1.83-0.409-2.756-0.575-0.585-0.105-0.434-0.488-0.459-0.956-0.029-0.553-0.045-1.107-0.046-1.662 0-0.061 2e-3 -0.127 0.041-0.174 0.028-0.032 0.069-0.049 0.109-0.064 0.96-0.364 1.981-0.568 3.008-0.601 0.246-9e-3 0.528 0.01 0.679 0.204 0.093 0.119 0.113 0.278 0.127 0.429 0.072 0.805 0.063 1.616-0.028 2.419-0.027 0.237-0.062 0.478-0.164 0.694"/>
</g>
<g transform="translate(523.17 194.75)">
<path d="m0 0c1.133 4.165 3.115 8.41 6.817 10.63 2.468 1.48 5.526 1.889 8.334 1.252 2.807-0.638 5.349-2.288 7.191-4.5 0.582-0.697 1.107-1.712 0.589-2.458-0.405-0.583-1.279-0.652-1.929-0.367s-1.14 0.831-1.649 1.326c-2.891 2.814-7.476 4.27-11.069 2.434-2.68-1.37-4.275-4.232-5.183-7.102-0.248-0.785-0.516-1.66-1.23-2.069s-2.043 0.221-1.871 0.854"/>
</g>
<g clip-path="url(#e)">
<g transform="translate(506.28 240.22)">
<path d="m0 0c-9.914-1.628-20.378 0.111-28.586 5.707 1.273-3.445 3.762-6.424 6.735-8.619 3.546-2.623 7.758-4.223 12.026-5.352 3.868-1.022 8.008-1.65 11.926-1.122-0.851 3.006-1.217 6.318-2.101 9.386m-35.194-112.23c0.706-1.406 1.401-2.812 2.095-4.212 3.702-1.112 7.397-2.229 11.098-3.34-0.272 1.4-0.494 2.812-0.656 4.229-5.801 1.511-10.225 2.701-12.537 3.323m-18.151 153.26c-0.855-0.26-1.675-0.705-2.248-1.391-0.574-0.686-0.871-1.633-0.65-2.499 0.048-0.191 0.131-0.389 0.298-0.494 0.278-0.175 0.64-0.018 0.926 0.145 1.067 0.608 2.109 1.306 3.298 1.616s2.596 0.145 3.419-0.767c0.715-0.793 0.834-1.943 1.273-2.916 0.439-0.974 1.596-1.852 2.83-1.606-0.227 1.608-0.466 3.257-1.245 4.683-1.476 2.701-4.955 4.123-7.901 3.229" fill="#ed6c71"/>
</g>
</g>
<g transform="translate(532.16 296.27)">
<path d="m0 0c-0.683 0.155-1.392 0.246-2.127 0.246-4.949 0-8.962-3.728-8.962-8.325 0-4.598 4.013-8.326 8.962-8.326 2.019 0 3.876 0.628 5.374 1.674-0.622 4.974-1.83 9.894-3.247 14.731m-49.41-10.538c-4.95 0-8.962-3.727-8.962-8.325s4.012-8.326 8.962-8.326 8.962 3.728 8.962 8.326-4.012 8.325-8.962 8.325" fill="#ee5952"/>
</g>
<g clip-path="url(#d)">
<g transform="translate(532.73 290.2)">
<path d="m0 0c-0.105 0.111-0.281 0.116-0.393 0.011-1.436-1.359-2.771-2.847-3.965-4.422-0.093-0.123-0.069-0.297 0.053-0.39 0.05-0.038 0.109-0.056 0.168-0.056 0.084 0 0.167 0.038 0.221 0.11 1.177 1.551 2.49 3.016 3.905 4.354 0.111 0.106 0.116 0.281 0.011 0.393m-2.352 0.494c0.114 0.104 0.122 0.279 0.018 0.393-0.103 0.112-0.278 0.121-0.392 0.017-1.683-1.537-3.238-3.235-4.621-5.048-0.094-0.121-0.07-0.296 0.052-0.389 0.05-0.038 0.109-0.057 0.168-0.057 0.084 0 0.166 0.038 0.221 0.11 1.364 1.785 2.896 3.459 4.554 4.974m-45.066-10.268c-1.517-1.85-2.781-3.896-3.754-6.083-0.062-0.14 1e-3 -0.304 0.141-0.367 0.037-0.016 0.075-0.023 0.113-0.023 0.107 0 0.208 0.061 0.254 0.164 0.953 2.141 2.19 4.145 3.676 5.956 0.097 0.119 0.08 0.294-0.039 0.391-0.117 0.097-0.293 0.081-0.391-0.038m-1.122 2.074c-0.109 0.108-0.284 0.107-0.392-2e-3 -2.016-2.034-3.89-4.239-5.572-6.552-0.09-0.124-0.063-0.298 0.061-0.388 0.05-0.036 0.107-0.054 0.164-0.054 0.086 0 0.17 0.04 0.224 0.115 1.666 2.291 3.522 4.474 5.518 6.488 0.107 0.109 0.106 0.285-3e-3 0.393" fill="#ee5952"/>
</g>
</g>
<g transform="translate(526.56 290.65)">
<path d="m0 0c-4.348-1.886-9.893-0.612-12.898 2.963-3.045 3.623-3.237 9.386-0.437 13.121 0.835 1.113 1.962 2.138 3.351 3.046 1.63 1.066 4.121 2.286 6.979 2.286 0.213 0 0.428-7e-3 0.645-0.021 4.899-0.319 9.161-4.722 9.501-9.815 0.313-4.699-2.757-9.678-7.141-11.58m-28.018-4.562c-2.593-2.143-5.414-3.51-8.157-3.952-3.158-0.509-6.371 0.246-8.59 2.022-1.138 0.912-2.11 2.133-2.886 3.63-1.31 2.524-1.779 5.323-1.319 7.883 0.564 3.143 2.594 6.055 5.431 7.789 2.007 1.227 4.406 1.871 6.843 1.871 0.87 0 1.745-0.082 2.609-0.249 1.504-0.29 2.821-0.8 3.912-1.516 1.881-1.233 3.337-3.252 4.101-5.686 1.248-3.976 0.862-9.474-1.944-11.792m35.714 16.179c-0.358 5.361-4.852 9.996-10.02 10.333-3.28 0.215-6.142-1.163-7.964-2.355-1.443-0.943-2.618-2.013-3.492-3.178-1.471-1.962-2.157-4.456-2.079-6.935-3.337 0.091-6.681-0.615-9.704-2.031-0.806 2.531-2.333 4.636-4.307 5.93-1.153 0.755-2.536 1.293-4.112 1.597-3.416 0.661-7.006 0.043-9.847-1.694-2.97-1.816-5.097-4.868-5.688-8.165-0.258-1.433-0.229-2.936 0.054-4.427-0.045 4e-3 -0.091 0-0.136-0.02l-12.826-5.769c-0.14-0.063-0.202-0.227-0.139-0.367 0.046-0.103 0.148-0.164 0.253-0.164 0.039 0 0.078 8e-3 0.114 0.024l12.826 5.769c6e-3 3e-3 0.01 8e-3 0.015 0.011 0.26-1.122 0.66-2.233 1.212-3.295 0.812-1.565 1.832-2.846 3.032-3.807 1.861-1.489 4.377-2.299 6.995-2.299 0.673 0 1.353 0.053 2.031 0.162 2.84 0.459 5.752 1.867 8.422 4.072 2.979 2.462 3.373 7.852 2.257 11.903 2.982 1.412 6.291 2.11 9.587 2.015 0.179-2.3 1.01-4.554 2.496-6.321 2.174-2.587 5.612-4.027 9.032-4.027 1.548 0 3.092 0.295 4.513 0.911 4.589 1.992 7.803 7.205 7.475 12.127"/>
</g>
<g transform="translate(377.6 172.46)">
<path d="m0 0c-4.935 7.83-11.048 14.877-18.027 20.951-10.743 9.352-23.535 16.388-37.223 20.372-3.206-5.785-6.413-11.575-9.486-17.433-4.412-8.408-8.563-16.938-12.075-25.752-5.285-13.248-9.12-27.213-10.042-41.417-0.317 0.116-0.639 0.228-0.962 0.339-1.356-1.651-2.667-3.34-3.923-5.068-6.041-8.275-10.936-17.389-14.499-26.997-0.9-2.412-1.711-4.857-2.439-7.33 3.973-2.512 7.98-4.929 12.031-7.213 8.925-5.03 18.094-9.392 27.703-12.621 13.97-4.69 28.964-6.924 43.54-4.762 5.613 0.828 11.192 2.328 16.138 5.118 12.076 6.807 18.828 20.445 21.684 34.015 4.852 23.046 0.139 47.87-12.42 67.798m-136.78 39.278c-2.851-1.517-5.657-3.134-8.402-4.846-10.142-6.318-19.451-13.981-27.02-23.19 3.668-0.767 7.336-1.534 11.004-2.301 1.845-0.383 3.751-0.8 5.251-1.933 1.023-0.778 1.795-1.99 1.945-3.229 6.663-1.712 13.287-3.562 19.873-5.546 2.05 5.246 4.129 10.481 6.268 15.688 2.979 7.246 6.113 14.521 10.287 21.123 1.339 2.123 2.784 4.173 4.368 6.129 1.033 1.278 2.128 2.523 3.034 3.896 0.861 1.311 1.534 2.706 2.084 4.168-10.064-1.228-19.706-5.174-28.692-9.959m-48.164-114.44c-0.845 1.183-1.162 2.656-1.456 4.079-4.929 23.568-9.853 47.13-14.777 70.698-0.45 2.162-0.905 4.324-1.344 6.48-10.065-18.645-18.773-38.784-18.261-59.896 0.127-5.251 0.855-10.569 2.989-15.371 3.946-8.875 12.471-15.171 21.757-18.016 6.213-1.901 12.931-2.406 19.239-0.845 3.723 0.917 7.291 2.59 10.336 4.913-4.362 1.539-8.719 3.095-13.076 4.662-2.023 0.723-4.168 1.545-5.407 3.296" fill="#fff"/>
</g>
<g transform="translate(280.95 82.914)">
<path d="m0 0c-6.663 0.895-13.298 1.984-19.895 3.262-1.133 6.135-2.495 12.226-4.068 18.267 1.295-0.251 2.579-0.534 3.846-0.895 3.957-1.117 7.841-3.034 10.525-6.091-0.9-2.412-1.711-4.857-2.439-7.33 3.973-2.512 7.98-4.929 12.031-7.213" fill="#00cdcc"/>
</g>
<g transform="translate(312.86 196.35)">
<path d="m0 0c-4.412-8.408-8.564-16.938-12.076-25.752-5.285-13.248-9.119-27.213-10.042-41.418-0.316 0.117-0.639 0.228-0.961 0.339-1.356-1.65-2.668-3.34-3.923-5.068-3.579 1.112-7.158 2.256-10.531 3.885-8.141 3.929-15.338 10.719-24.096 12.12-1.817 9.847-3.635 19.689-5.452 29.536-0.767 0.234-1.539 0.473-2.312 0.701 2.051 5.245 4.129 10.48 6.269 15.687 2.979 7.247 6.113 14.521 10.286 21.123 2.034-4.957 4.985-9.691 9.597-12.32 3.096-1.762 6.68-2.428 10.203-2.94 6.536-0.944 13.204-1.445 19.734-0.483 4.668 0.683 9.281 2.167 13.304 4.59" fill="#00cdcc"/>
</g>
<g transform="translate(175.08 178.55)">
<path d="m0 0c-0.322 1.528-0.634 3.057-0.945 4.585-0.122 0.6-0.228 1.278 0.139 1.772 0.378 0.506 1.101 0.584 1.734 0.595 0.528 0.011 1.056 0 1.584-0.017 2.495-0.1 4.985-0.511 7.452-0.944 1.967-0.345 3.929-0.695 5.891-1.067 10.964-2.045 21.862-4.457 32.665-7.236 6.663-1.711 13.287-3.562 19.872-5.546 0.773-0.228 1.545-0.467 2.312-0.7 1.817-9.847 3.634-19.689 5.452-29.536 0.566-3.068 1.133-6.13 1.7-9.198-9.503-0.544-18.961 2.001-28.48 2.757-0.395 0.033-0.817 0.055-1.162-0.139-0.978-0.539-0.483-2.056 0.256-2.89 0.122-0.133 0.244-0.267 0.372-0.394-0.917-0.423-1.773-1.051-1.817-2.012-0.017-0.523 0.222-1.017 0.5-1.456 0.3-0.472 0.645-0.911 1.023-1.317-0.628-0.578-1.156-1.245-1.267-2.073-0.162-1.184 0.594-2.284 1.4-3.156 0.339-0.367 0.689-0.723 1.056-1.062-0.623-1.323-0.317-3.045 0.539-4.279 1.011-1.461 2.612-2.39 4.196-3.201 5.446-2.795 11.297-4.807 17.31-5.946 3.362-0.639 6.78-1.011 10.131-1.651 1.573-6.04 2.934-12.131 4.068-18.266 0.694-3.729 1.306-7.469 1.834-11.226 0.078-0.533 0.144-1.105-0.084-1.594-0.578-1.256-2.406-1.017-3.717-0.578-16.033 5.39-32.015 10.908-47.953 16.56-4.363 1.539-8.72 3.095-13.076 4.663-2.023 0.722-4.168 1.544-5.408 3.295-0.844 1.184-1.161 2.656-1.456 4.079-4.929 23.568-9.853 47.13-14.776 70.698-0.45 2.162-0.906 4.324-1.345 6.48" fill="#3f2532"/>
</g>
<g transform="translate(205.4 183.7)">
<path d="m0 0c3.668-0.767 7.335-1.534 11.003-2.301 1.845-0.383 3.751-0.8 5.252-1.933 1.022-0.778 1.795-1.99 1.945-3.229-10.803 2.778-21.701 5.19-32.665 7.235 0.039 0.8 0.539 1.656 1.272 2.04 1.239 0.644 2.734 0.372 4.107 0.089 0.395-0.084 0.789-0.167 1.184-0.251l7.902-1.65" fill="#c0dbf9"/>
</g>
<g transform="translate(294.52 316.63)">
<path d="m0 0c-7.152 1.945-14.843 2.195-21.945 0.083-7.197-2.134-13.738-6.796-17.567-13.254-2.428-4.106-3.717-8.769-4.907-13.392-1.7-6.641-3.245-13.321-4.79-20.001-1-4.312-2-8.68-1.917-13.109 0.172-8.975 5.157-17.716 12.793-22.434 4.606-2.846 9.941-4.229 15.321-5.041-0.495-2.639-1.062-5.29-2.001-7.78-10.064-1.228-19.706-5.173-28.692-9.958-2.85-1.517-5.657-3.134-8.402-4.846-11.787 10.464-18.528 27.619-12.982 42.307 4.407 11.664 15.438 19.822 20.023 31.42 3.073 7.786 2.967 16.444 5.04 24.557 3.307 12.926 12.426 24.241 24.357 30.209 11.926 5.969 26.453 6.485 38.773 1.378 0.9-0.372 1.823-0.778 2.795-0.744 1.045 0.039 1.995 0.578 2.923 1.056 9.031 4.623 20.356 3.689 29.17-1.323 8.814-5.018 15.193-13.726 18.561-23.296 2.795-7.947 3.684-16.577 7.474-24.107 2.868-5.69 7.252-10.464 10.592-15.888 8.33-13.532 9.642-30.842 4.691-45.941-4.324-13.21-13.171-24.685-24.263-33.11-10.742 9.353-23.535 16.388-37.222 20.373-0.039 0.011-0.084 0.022-0.122 0.033-2.279 12.848-2.885 26.175-1.695 39.334 5.151-1.228 10.742-1.973 15.593 0.15 4.846 2.123 8.336 8.086 6.074 12.87-0.772 1.64-2.117 2.962-3.618 3.979-6.179 4.179-15.421 2.89-20.222-2.812 0.867 5.291-0.245 10.881-3.068 15.438-4.968 8.025-14.654 12.454-18.866 20.901-1.968 3.945-2.546 8.563-1.618 12.87-0.088 0.023-0.172 0.05-0.261 0.073-5e-3 0-0.011 5e-3 -0.022 5e-3" fill="#3f2532"/>
</g>
<g transform="translate(193.08 238.14)">
<path d="m0 0c-2.667-3.451-5.307-6.935-7.919-10.453-1.139-1.534-2.273-3.073-3.401-4.618 1.323-1.2 2.501-2.562 3.418-4.068 1.044 1.334 2.089 2.668 3.112 4.018 0.127 0.172 0.255 0.339 0.383 0.511 3.029 4.046 5.824 8.258 8.819 12.37-1.422 0.84-2.895 1.584-4.412 2.24m-27.547-38.039c-1.723-2.523-3.44-5.057-5.152-7.597-0.277-1.856-0.561-3.712-0.844-5.568 1.756 1.178 3.512 2.351 4.996 3.512 1.406 1.606 2.728 3.279 3.99 4.991-0.061 0.072-0.122 0.144-0.184 0.216-1.122 1.356-2.217 2.807-2.806 4.446" fill="#00cdcc"/>
</g>
<g transform="translate(342.2 266.17)">
<path d="m0 0c-0.772 1.639-2.117 2.962-3.618 3.979-6.179 4.179-15.421 2.89-20.222-2.812 0.866 5.29-0.245 10.881-3.068 15.438-4.968 8.024-14.654 12.454-18.867 20.9-1.967 3.946-2.545 8.564-1.617 12.871-0.089 0.022-0.172 0.05-0.261 0.072-0.022-0.011-0.044-0.017-0.067-0.028 0.017 0.011 0.028 0.023 0.045 0.034-7.152 1.945-14.843 2.195-21.946 0.083-7.196-2.134-13.737-6.796-17.566-13.254-2.428-4.107-3.717-8.769-4.907-13.393-1.7-6.64-3.245-13.32-4.79-20-1-4.312-2.001-8.68-1.917-13.109 0.172-8.975 5.157-17.717 12.792-22.435 4.607-2.845 9.942-4.229 15.322-5.04-0.495-2.64-1.062-5.291-2.001-7.78-0.55-1.462-1.223-2.857-2.084-4.168-0.906-1.373-2.001-2.617-3.034-3.896-1.584-1.956-3.029-4.006-4.368-6.129 2.034-4.957 4.985-9.692 9.597-12.32 3.095-1.762 6.68-2.429 10.203-2.94 6.535-0.945 13.204-1.445 19.734-0.484 4.668 0.684 9.28 2.168 13.304 4.591 3.073 5.857 6.279 11.647 9.486 17.432-0.039 0.012-0.084 0.023-0.123 0.034-2.278 12.848-2.884 26.174-1.695 39.334 5.152-1.229 10.742-1.973 15.594 0.15 4.846 2.122 8.336 8.085 6.074 12.87m-147.03-65.28c0.312 2.378 1.067 4.673 1.451 7.041 0.378 2.367 0.356 4.912-0.795 7.018-1.195 2.179-3.412 3.563-5.185 5.302-0.872 0.85-1.639 1.789-2.35 2.767-1.023-1.35-2.068-2.684-3.112-4.017-0.917 1.506-2.095 2.867-3.418 4.067 1.128 1.545 2.262 3.085 3.401 4.618-0.411 0.612-0.833 1.212-1.278 1.795-0.839 1.101-2.051 2.246-3.401 1.951-0.828-0.178-1.456-0.872-1.828-1.634-0.678-1.395-0.656-3.112 0.061-4.484-0.373 0.183-0.767 0.322-1.178 0.4-1.073 0.205-2.312-0.123-2.912-1.039-0.767-1.179-0.223-2.751 0.444-3.991 0.173-0.316 0.345-0.628 0.534-0.939l-0.356-0.211c-1.55 0.845-3.584-0.45-4.118-2.134-0.505-1.606-0.044-3.329 0.556-4.912l-0.228-0.089c-1.445-0.223-2.906-0.962-3.551-2.268-0.517-1.05-0.433-2.239-0.083-3.378l-0.278-0.039c-1.94-0.912-2.729-3.401-2.318-5.507 0.073-0.378 0.178-0.745 0.306-1.106 0.589-1.64 1.684-3.09 2.806-4.446 0.062-0.072 0.123-0.145 0.184-0.217 1.45-1.739 3.067-3.429 5.146-4.301 0.956-0.406 2.189-0.578 2.94 0.139 0.022 0.022 0.038 0.039 0.061 0.061 0.216-1.906 0.583-4.235 0.922-5.774l-5e-3 -0.078c2.495-0.1 4.984-0.511 7.452-0.944 1.967-0.345 3.929-0.695 5.89-1.067 0.039 0.8 0.539 1.656 1.273 2.039 1.239 0.645 2.734 0.372 4.107 0.089 0.394-0.083 0.789-0.167 1.183-0.25-0.616 4.479-2.906 11.081-2.323 15.538m56.061-60.435c0.567-3.067 1.134-6.129 1.701-9.197-9.503-0.544-18.961 2.001-28.481 2.757-0.394 0.033-0.817 0.055-1.161-0.139-0.978-0.539-0.484-2.056 0.255-2.89 0.123-0.133 0.245-0.267 0.373-0.395-0.917-0.422-1.773-1.05-1.817-2.011-0.017-0.523 0.222-1.017 0.5-1.456 0.3-0.473 0.644-0.912 1.022-1.317-0.628-0.578-1.156-1.245-1.267-2.073-0.161-1.184 0.595-2.284 1.401-3.157 0.339-0.366 0.689-0.722 1.055-1.061-0.622-1.323-0.316-3.045 0.54-4.279 1.011-1.462 2.611-2.39 4.195-3.201 5.446-2.795 11.298-4.807 17.311-5.946 3.362-0.639 6.78-1.012 10.131-1.651 1.294-0.25 2.578-0.533 3.845-0.894 3.957-1.117 7.841-3.035 10.526-6.091 3.562 9.608 8.458 18.722 14.498 26.997-3.579 1.111-7.157 2.256-10.531 3.884-8.141 3.929-15.337 10.72-24.096 12.12" fill="#fbb4b8"/>
</g>
<g clip-path="url(#c)">
<g transform="translate(238.24 190.9)">
<path d="m0 0c4.89 5.834 9.779 11.668 14.669 17.502-5.641-4.892-11.397-10.144-17.051-15.504-0.513-0.486-1.045-1.005-1.246-1.683-0.231-0.778 0.021-1.61 0.271-2.383l1.498-4.636c0.418-1.296 0.842-2.62 0.83-3.982-0.02-2.438-1.407-4.615-2.257-6.912l0.95-0.22 3.048 4.275c0.347 0.487 0.701 0.989 0.842 1.569 0.193 0.796-0.039 1.627-0.269 2.413-0.645 2.207-1.291 4.413-1.936 6.619-0.14 0.481-0.282 0.982-0.196 1.475 0.099 0.563 0.48 1.029 0.847 1.467m75.313-51.084c-3.319-5.349-6.639-10.698-9.959-16.047l2.36-1.094c0.834 0.741 1.576 1.658 2.221 2.535 2.132 2.899 4.264 5.799 6.397 8.699 1.354 1.841 2.743 3.759 3.202 5.998 0.494 2.408-0.148 4.887-0.785 7.261-0.808 3.011-1.617 6.023-2.425 9.034-0.293 1.093-0.583 2.273-0.184 3.331 0.374 0.991 1.277 1.669 2.136 2.29 3.892 2.815 7.784 5.629 11.676 8.444 0.863 0.625 1.765 1.295 2.195 2.269 0.428 0.97 0.321 2.081 0.196 3.134-0.953 8.06-2.401 16.062-3.855 24.424 0.41-8.526 0.82-17.052 1.23-25.577 0.037-0.756 0.068-1.543-0.232-2.238-0.378-0.879-1.215-1.458-2.018-1.979-3.684-2.387-7.525-4.531-11.49-6.415-0.524-0.248-1.073-0.511-1.412-0.982-0.358-0.498-0.42-1.146-0.442-1.759-0.181-5.027 1.475-9.912 2.462-14.844 0.215-1.076 0.4-2.186 0.204-3.266-0.212-1.169-0.851-2.209-1.477-3.218m1.21-21.133c1.128-0.478 2.267-0.945 3.412-1.395 3.801-1.489 7.763-2.756 11.787-3.579 3.406 8.336 6.362 16.855 8.858 25.502-0.367-0.856-9.109-20.972-24.057-20.528m20.156-43.863c-31.893 5.213-53.355 24.141-60.118 30.865-1.25-2.695-2.401-5.446-3.434-8.23-0.901-2.412-1.712-4.857-2.44-7.33 3.973-2.512 7.98-4.929 12.031-7.214 8.925-5.029 18.094-9.391 27.703-12.62 13.971-4.69 28.964-6.924 43.54-4.762 5.613 0.828 11.193 2.328 16.139 5.118 6.851 3.862 11.992 9.925 15.671 16.927-9.892-7.858-26.441-16.455-49.092-12.754m-139.03 20.028c-25.402-5.451-35.433 15.722-39.05 27.936-0.045-1.372-0.05-2.751-0.017-4.129 0.128-5.251 0.856-10.569 2.99-15.371 3.945-8.875 12.47-15.171 21.756-18.016 6.213-1.901 12.932-2.406 19.239-0.845 3.723 0.917 7.291 2.59 10.336 4.913-4.362 1.539-8.719 3.095-13.076 4.662-0.728 0.261-1.467 0.528-2.178 0.85" fill="#c0dbf9"/>
</g>
</g>
<g clip-path="url(#b)">
<g transform="translate(337.11 264.24)">
<path d="m0 0c-0.6 1.367-1.901 2.351-3.331 2.781-1.429 0.43-2.973 0.351-4.427 0.012-2.729-0.637-5.369-2.362-6.335-4.992 0.063-0.074 0.497-0.493 0.937-0.527s0.854 0.193 1.231 0.422c1.084 0.659 2.128 1.4 3.298 1.891s2.512 0.714 3.709 0.293c1.026-0.36 1.834-1.145 2.704-1.796 0.453-0.339 1.006-0.66 1.553-0.518 0.464 0.12 0.796 0.565 0.884 1.036 0.089 0.471-0.03 0.959-0.223 1.398m-43.679-34.491c-6.174-1.639-12.699-1.406-19.045-0.655-0.956 0.116-1.917 0.238-2.873 0.389-0.494-2.64-1.061-5.291-2-7.781-0.356-0.939-0.762-1.856-1.234-2.734 8.08-0.611 16.405 0.234 23.735 3.679 7.029 3.296 13.037 9.192 15.543 16.488-3.24-4.729-8.547-7.908-14.126-9.386" fill="#f8a3a8"/>
</g>
</g>
<g transform="translate(293.5 283.09)">
<path d="m0 0c-0.624 0.294-1.369 0.161-2.009-0.096-2.172-0.875-3.654-3.228-3.503-5.565 0.029-0.442 0.112-0.885 0.304-1.283 0.314-0.647 0.925-1.143 1.623-1.317 0.698-0.175 1.47-0.024 2.052 0.4 1.416 1.032 2.81 3.127 2.754 5.427-0.024 0.956-0.355 2.027-1.221 2.434m-30.338 4.414c-0.612 0.318-1.361 0.215-2.011-0.017-2.206-0.788-3.778-3.082-3.719-5.423 0.011-0.442 0.076-0.888 0.254-1.293 0.288-0.66 0.879-1.179 1.569-1.381 0.691-0.201 1.468-0.081 2.066 0.319 1.456 0.976 2.931 3.015 2.965 5.315 0.014 0.957-0.275 2.039-1.124 2.48"/>
</g>
<g transform="translate(302.81 290.85)">
<path d="m0 0c-0.1 2.618-2.43 4.649-4.876 5.587-3.168 1.216-6.831 1.125-9.903-0.318-0.538-0.253-1.074-0.558-1.431-1.034-0.357-0.475-0.496-1.157-0.197-1.671 0.298-0.514 1.103-0.704 1.301-0.46 3.012 0.805 6.399 1.097 9.097-0.466 1.281-0.741 2.308-1.847 3.509-2.713 0.569-0.41 1.346-0.769 1.936-0.391 0.463 0.295 0.585 0.918 0.564 1.466m-34.341 10.282c-1.241 0.606-2.636 0.83-4.016 0.89-1.425 0.062-2.857-0.044-4.257-0.314-0.931-0.179-1.872-0.442-2.638-1.001-0.767-0.559-1.335-1.464-1.273-2.411 0.013-0.202 0.06-0.412 0.195-0.562 0.212-0.235 0.571-0.254 0.886-0.23 1.233 0.097 2.396 0.595 3.605 0.851 2.36 0.5 4.91 0.032 6.938-1.274 1.029-0.662 2.097-1.573 3.302-1.365 0.324 0.594 0.339 1.643 0.04 2.488-0.461 1.301-1.54 2.323-2.782 2.928" fill="#3f2532"/>
</g>
<g transform="translate(277.85 255.95)">
<path d="m0 0c-0.136 0.072-0.304 0.018-0.375-0.117-0.598-1.141-1.776-2.064-3.233-2.531-1.17-0.375-2.528-0.491-4.279-0.367-2.311 0.165-4.146 0.663-5.611 1.521-1.791 1.05-3.03 2.721-3.312 4.471-0.025 0.152-0.167 0.256-0.319 0.23-0.152-0.024-0.255-0.167-0.23-0.318 0.309-1.912 1.647-3.73 3.58-4.862 1.54-0.903 3.455-1.425 5.853-1.596 0.46-0.033 0.896-0.05 1.31-0.05 1.221 0 2.251 0.145 3.178 0.442 1.594 0.511 2.89 1.532 3.555 2.802 0.072 0.136 0.019 0.304-0.117 0.375m-11.009 9.014c0.055-0.073 0.138-0.111 0.223-0.111 0.058 0 0.116 0.018 0.166 0.055 0.123 0.093 0.148 0.267 0.056 0.389l-2.118 2.824c-0.296 0.395-0.541 0.753-0.538 1.134 4e-3 0.546 0.529 1.012 0.951 1.386 2.276 2.015 4.164 4.392 5.612 7.064 0.073 0.135 0.023 0.304-0.112 0.377-0.134 0.073-0.303 0.023-0.376-0.112-1.418-2.615-3.265-4.941-5.492-6.913-0.478-0.424-1.133-1.004-1.139-1.798-4e-3 -0.599 0.374-1.103 0.649-1.471zm27.624 51.266c-0.835-4.283-0.232-8.769 1.716-12.675 2.268-4.549 6.157-7.988 9.917-11.315 3.275-2.897 6.662-5.893 8.962-9.607 2.778-4.485 3.882-10.042 3.029-15.247-0.025-0.152 0.078-0.294 0.229-0.32 0.016-2e-3 0.031-3e-3 0.046-3e-3 0.134 0 0.251 0.097 0.274 0.233 0.874 5.335-0.258 11.032-3.106 15.629-2.343 3.784-5.76 6.807-9.065 9.731-3.721 3.292-7.569 6.695-9.789 11.147-1.949 3.909-2.515 8.415-1.594 12.688 3e-3 0.015-1e-3 0.028 0 0.042 0.019 8e-3 0.038 0.016 0.057 0.023 0.144 0.053 0.218 0.212 0.165 0.356-0.052 0.144-0.212 0.218-0.356 0.165-0.123-0.045-0.244-0.094-0.365-0.143-0.057 2e-3 -0.114-7e-3 -0.165-0.041l-0.045-0.034s-7e-3 -5e-3 -0.01-7e-3c-4e-3 -3e-3 -8e-3 -6e-3 -0.011-9e-3l-0.01-6e-3c-6.276-2.548-11.699-7.429-14.882-13.399-0.072-0.135-0.021-0.304 0.115-0.376 0.042-0.022 0.086-0.033 0.13-0.033 0.1 0 0.196 0.054 0.246 0.147 2.787 5.229 7.328 9.602 12.662 12.265-4.438-3.947-7.215-9.62-7.528-15.576-8e-3 -0.153 0.11-0.284 0.263-0.292 5e-3 -1e-3 0.01-1e-3 0.015-1e-3 0.147 0 0.269 0.116 0.277 0.264 0.334 6.352 3.714 12.612 8.823 16.394m54.176-202.36c-0.039 0.149-0.191 0.239-0.339 0.198-5.354-1.404-11.394-1.451-17.958-0.148 3.907 9.601 7.265 19.57 9.977 29.639 0.04 0.148-0.048 0.3-0.196 0.34s-0.3-0.047-0.34-0.196c-2.716-10.08-6.079-20.061-9.995-29.671-3.645 0.76-7.414 1.91-11.514 3.516-4.131 1.62-8.227 3.53-12.188 5.377-4.931 2.299-10.029 4.676-15.242 6.518-0.298 0.11-0.601 0.214-0.904 0.319l-0.063 0.021c-0.145 0.05-0.304-0.027-0.353-0.172-0.05-0.145 0.026-0.303 0.172-0.353l0.062-0.022c0.3-0.103 0.599-0.206 0.897-0.316 5.191-1.834 10.277-4.205 15.196-6.499 3.969-1.85 8.073-3.764 12.22-5.39 4.215-1.651 8.085-2.827 11.832-3.593 3.314-0.678 6.498-1.018 9.535-1.018 3.17 0 6.179 0.37 9.003 1.111 0.148 0.038 0.237 0.19 0.198 0.339m-163.22 105.28c-0.886 1.455-2.053 2.845-3.468 4.129-0.423 0.385-0.881 0.771-1.361 1.147-0.5 0.391-1.099 0.832-1.749 1.142-0.41 0.202-0.831 0.344-1.249 0.424-0.151 0.029-0.296-0.071-0.325-0.222-0.028-0.15 0.071-0.296 0.222-0.324 0.369-0.07 0.741-0.197 1.11-0.378 0.604-0.289 1.173-0.708 1.648-1.08 0.469-0.367 0.916-0.744 1.33-1.12 1.376-1.249 2.509-2.597 3.367-4.007 0.553-0.908 0.995-1.843 1.314-2.779 0.393-1.155 0.802-2.787-0.18-3.634-1.102-0.951-2.873-0.084-3.391 0.204-0.045 0.025-0.085 0.051-0.136 0.082-0.494 0.282-0.978 0.61-1.439 0.978-0.613 0.479-1.231 1.044-1.838 1.679-0.563 0.586-1.111 1.215-1.627 1.87-0.666 0.844-1.273 1.729-1.801 2.63-0.077 0.132-0.248 0.177-0.38 0.099-0.133-0.078-0.177-0.248-0.099-0.38 0.541-0.923 1.162-1.83 1.844-2.694 0.527-0.669 1.087-1.311 1.662-1.909 0.625-0.654 1.263-1.237 1.895-1.732 0.419-0.334 0.86-0.631 1.303-0.896 0-0.038 7e-3 -0.077 0.024-0.114 0.973-2.105 1.384-4.44 1.187-6.751-0.07-0.836-0.39-2.838-1.84-3.393-0.612-0.233-1.309-0.169-2.072 0.193-0.523 0.244-1.072 0.626-1.63 1.135-0.728 0.676-1.421 1.435-2.059 2.256-1.047 1.351-1.994 2.937-2.813 4.716-0.3 0.64-0.578 1.287-0.827 1.925-0.031 0.078-0.063 0.156-0.089 0.234-0.048 0.146-0.205 0.224-0.351 0.176s-0.224-0.205-0.176-0.351c0.029-0.089 0.065-0.178 0.099-0.264 0.252-0.646 0.535-1.305 0.84-1.954 0.836-1.815 1.805-3.438 2.878-4.822 0.656-0.846 1.37-1.627 2.122-2.325 0.557-0.507 1.108-0.894 1.64-1.162 0.408-0.98 0.632-2.057 0.642-3.12 7e-3 -0.854-0.169-1.437-0.539-1.784-0.393-0.367-0.952-0.459-1.665-0.272-0.575 0.145-1.094 0.422-1.427 0.627-1.418 0.885-2.719 1.94-3.865 3.136-1.27 1.326-2.344 2.801-3.193 4.39-0.051 0.091-0.099 0.185-0.147 0.277l-0.052 0.099c-0.292 0.586-0.511 1.113-0.667 1.61-0.045 0.146-0.202 0.228-0.348 0.182s-0.228-0.202-0.182-0.348c0.165-0.526 0.394-1.08 0.703-1.697l0.052-0.102c0.051-0.098 0.103-0.198 0.154-0.289 0.87-1.628 1.973-3.144 3.279-4.507 1.178-1.229 2.514-2.313 3.973-3.223 0.367-0.227 0.94-0.532 1.581-0.693 0.282-0.074 0.55-0.111 0.801-0.111 0.547 0 1.017 0.174 1.382 0.515 0.49 0.459 0.724 1.177 0.716 2.195-9e-3 0.957-0.187 1.922-0.501 2.829 0.337-0.106 0.666-0.165 0.982-0.165 0.332 0 0.652 0.058 0.958 0.175 1.681 0.643 2.097 2.698 2.194 3.865 0.189 2.215-0.164 4.448-1.01 6.499 0.695-0.329 1.367-0.504 1.97-0.504 0.642 0 1.208 0.188 1.646 0.565 1.236 1.066 0.788 2.927 0.343 4.234-0.332 0.975-0.792 1.947-1.365 2.889m75.494-115.33c-1.133 0.324-2.363 0.61-3.87 0.901-1.687 0.322-3.418 0.58-5.092 0.83-1.657 0.248-3.37 0.504-5.039 0.821-5.997 1.136-11.796 3.128-17.235 5.92-1.455 0.745-3.091 1.662-4.095 3.112-0.772 1.113-1.009 2.529-0.647 3.649 2.336-2.07 5.373-3.748 9.05-4.982 2.157-0.724 4.394-1.265 6.649-1.606 0.014-2e-3 0.028-3e-3 0.042-3e-3 0.135 0 0.254 0.098 0.274 0.236 0.023 0.152-0.081 0.293-0.233 0.316-2.223 0.337-4.429 0.87-6.555 1.584-3.762 1.262-6.843 2.988-9.158 5.131-0.341 0.315-0.682 0.658-1.04 1.046-1.014 1.097-1.449 2.056-1.329 2.931 0.077 0.578 0.395 1.13 0.99 1.721 0.9-0.921 1.932-1.674 2.752-2.231 4.89-3.309 10.563-5.492 16.405-6.314 0.013-1e-3 0.026-2e-3 0.039-2e-3 0.136 0 0.255 0.1 0.275 0.239 0.021 0.152-0.085 0.292-0.237 0.314-5.758 0.809-11.35 2.962-16.171 6.223-0.855 0.581-1.954 1.373-2.859 2.349-0.375 0.403-0.709 0.833-0.991 1.276-0.328 0.519-0.469 0.92-0.457 1.295 0.03 0.656 0.523 1.209 1.491 1.689 1.698-1.658 3.892-2.745 5.828-3.587 5.329-2.335 10.955-3.933 16.721-4.75 0.014-1e-3 0.027-2e-3 0.04-2e-3 0.136 0 0.255 0.1 0.275 0.238 0.021 0.152-0.085 0.293-0.237 0.315-5.716 0.809-11.293 2.393-16.577 4.709-1.944 0.845-4.153 1.934-5.805 3.608-0.122 0.123-0.238 0.25-0.361 0.384-0.434 0.489-0.819 1.302-0.714 1.907 0.044 0.254 0.17 0.435 0.387 0.555 0.269 0.153 0.628 0.135 1.003 0.105 3.489-0.278 7.031-0.805 10.457-1.314 5.911-0.879 12.022-1.791 18.057-1.444 0.564 0.023 1.115 0.071 1.626 0.118 0.153 0.014 0.265 0.15 0.251 0.302-0.015 0.153-0.149 0.26-0.302 0.251-0.504-0.046-1.047-0.092-1.602-0.116-5.982-0.342-12.066 0.563-17.948 1.438-3.435 0.512-6.987 1.04-10.493 1.318-0.446 0.038-0.915 0.056-1.319-0.172-0.363-0.2-0.592-0.527-0.665-0.946-0.14-0.815 0.34-1.801 0.858-2.384 0.037-0.04 0.075-0.079 0.112-0.119-1.046-0.559-1.6-1.256-1.638-2.081-0.021-0.645 0.3-1.23 0.543-1.614 0.253-0.398 0.552-0.781 0.875-1.148-0.483-0.476-1.041-1.163-1.16-2.056-0.143-1.049 0.338-2.156 1.471-3.382 0.322-0.349 0.63-0.657 0.937-0.947-0.525-1.315-0.286-3.037 0.634-4.363 1.077-1.557 2.783-2.515 4.297-3.291 5.486-2.816 11.336-4.825 17.386-5.971 1.679-0.32 3.398-0.576 5.06-0.824 1.668-0.249 3.394-0.507 5.07-0.827 1.49-0.287 2.704-0.57 3.822-0.889 4.451-1.257 8.045-3.334 10.393-6.007 0.054-0.062 0.131-0.094 0.208-0.094 0.065 0 0.131 0.023 0.184 0.069 0.115 0.101 0.126 0.277 0.025 0.392-2.419 2.754-6.104 4.889-10.658 6.174"/>
</g>
<g clip-path="url(#a)">
<g transform="translate(303.15 274.02)">
<path d="m0 0c-5.912 0-10.704-4.792-10.704-10.704 0-5.911 4.792-10.704 10.704-10.704 5.911 0 10.704 4.793 10.704 10.704 0 5.912-4.793 10.704-10.704 10.704" fill="#f8a3a8"/>
</g>
<g transform="translate(248.19 258.88)">
<path d="m0 0c5.911 0 10.704 4.792 10.704 10.704 0 5.911-4.793 10.704-10.704 10.704-0.166 0-0.327-0.018-0.492-0.025-0.807-3.397-1.595-6.8-2.382-10.202-0.772-3.329-1.538-6.692-1.812-10.09 1.417-0.692 3.003-1.091 4.686-1.091" fill="#f8a3a8"/>
</g>
</g>
<g transform="translate(301.47 259.51)">
<path d="M 0,0 C 0.069,0 0.138,0.025 0.191,0.076 2.366,2.14 4.78,3.956 7.367,5.473 7.5,5.551 7.544,5.721 7.466,5.854 7.389,5.986 7.219,6.03 7.086,5.953 4.463,4.414 2.014,2.572 -0.191,0.48 -0.303,0.374 -0.307,0.198 -0.202,0.087 -0.147,0.029 -0.073,0 0,0" fill="#ee5952"/>
</g>
<g transform="translate(305.29 267.11)">
<path d="m0 0c-0.068 0.138-0.235 0.194-0.372 0.127-3.07-1.511-5.9-3.457-8.41-5.784-0.113-0.105-0.119-0.28-0.015-0.393 0.055-0.059 0.129-0.089 0.204-0.089 0.067 0 0.135 0.025 0.188 0.074 2.471 2.291 5.257 4.206 8.278 5.693 0.138 0.068 0.195 0.234 0.127 0.372" fill="#ee5952"/>
</g>
<g transform="translate(248.48 265.99)">
<path d="M 0,0 C 0.065,0 0.13,0.023 0.183,0.068 2.107,1.744 4.226,3.199 6.482,4.392 6.617,4.463 6.669,4.632 6.597,4.767 6.526,4.903 6.358,4.955 6.222,4.883 3.929,3.67 1.774,2.191 -0.183,0.487 -0.298,0.387 -0.31,0.211 -0.21,0.095 -0.155,0.032 -0.077,0 0,0" fill="#ee5952"/>
</g>
<g transform="translate(252.6 273.28)">
<path d="m0 0c-0.069 0.137-0.234 0.192-0.373 0.124-2.645-1.325-5.091-2.997-7.288-4.972-0.071-0.313-0.139-0.627-0.209-0.941 2.306 2.174 4.912 3.997 7.746 5.416 0.137 0.069 0.193 0.236 0.124 0.373" fill="#ee5952"/>
</g>
<g transform="translate(235.52 182.86)">
<path d="m0 0c-1.117 0.168-2.268 0.086-3.338-0.284-2.882-0.998-4.938-4-4.827-7.047l12.925-4.047c1.828 2.44 1.851 6.079 0.053 8.541-0.689 0.944-1.624 1.684-2.677 2.183 2.469 6.352 15.96 39.096 32.878 42.806 0.203 0.781 0.386 1.568 0.553 2.36-18.912-2.974-33.111-38.068-35.567-44.512m90.121 4.161c-0.219-0.573 0.068-1.215 0.641-1.434 0.131-0.051 0.265-0.074 0.397-0.074 0.447 0 0.869 0.271 1.038 0.714 0.123 0.321 3.021 7.98 3.439 17.047 0.524 11.385-3.178 19.792-10.719 24.463 0.078-0.956 0.165-1.91 0.261-2.863 14.906-11.164 5.051-37.571 4.943-37.853m-27.901-50.257c-2.679 1.459-4.65 4.568-5.142 8.112-0.413 2.98 0.079 6.289 1.505 10.114 3.438 9.225 10.22 16.697 17.037 23.397 0.329 0.323 0.333 0.851 0.011 1.179-0.323 0.329-0.851 0.332-1.179 0.01-6.955-6.835-13.88-14.474-17.432-24.004-1.524-4.091-2.045-7.664-1.593-10.925 0.572-4.119 2.813-7.614 5.996-9.348 0.126-0.069 0.263-0.101 0.398-0.101 0.295 0 0.581 0.157 0.733 0.435 0.22 0.404 0.071 0.91-0.334 1.131m33.86 34.242c-0.456 0.074-0.883-0.238-0.955-0.692-1.781-11.2-5.058-21.396-9.739-30.305-1.495-2.844-3.252-5.683-5.968-7.185-2.772-1.534-6.585-1.546-10.201-0.03-0.425 0.177-0.913-0.023-1.091-0.447-0.178-0.425 0.022-0.913 0.447-1.091 1.997-0.837 4.06-1.255 6.023-1.255 2.048 0 3.988 0.455 5.629 1.364 3.1 1.714 5.022 4.795 6.637 7.869 4.765 9.069 8.1 19.438 9.91 30.818 0.072 0.454-0.238 0.882-0.692 0.954" fill="#ee5952"/>
</g>
<g transform="translate(303.77 134.1)">
<path d="m0 0c-0.168 0.189-0.34 0.425-0.593 0.437-0.22 0.011-0.403-0.158-0.549-0.323-0.554-0.627-0.974-1.37-1.226-2.166-0.028-0.089-0.054-0.181-0.043-0.273 0.019-0.172 0.167-0.308 0.329-0.371s0.34-0.07 0.513-0.087c0.312-0.032 0.621-0.102 0.916-0.208 0.237-0.085 0.52-0.189 0.722-0.039 0.13 0.095 0.17 0.255 0.246 0.388 0.063 0.113 0.151 0.19 0.228 0.291 0.219 0.286 0.377 0.602 0.631 0.864 0.048 0.05 0.101 0.102 0.115 0.169 0.021 0.098-0.043 0.192-0.108 0.266-0.347 0.398-0.829 0.658-1.181 1.052m-3.975 2.525c-0.162 0.065-0.339 0.074-0.512 0.094-0.312 0.035-0.62 0.109-0.914 0.219-0.236 0.088-0.517 0.196-0.721 0.049-0.131-0.094-0.173-0.253-0.25-0.386-0.065-0.112-0.154-0.188-0.232-0.288-0.223-0.283-0.385-0.597-0.642-0.856-0.049-0.049-0.102-0.1-0.117-0.168-0.022-0.097 0.04-0.191 0.105-0.267 0.341-0.402 0.82-0.668 1.167-1.067 0.166-0.19 0.334-0.429 0.587-0.444 0.22-0.014 0.406 0.153 0.554 0.317 0.561 0.619 0.991 1.356 1.252 2.15 0.03 0.088 0.057 0.179 0.047 0.272-0.017 0.173-0.163 0.31-0.324 0.375m30.825 47.073c-0.854 1.153-1.93 2.219-3.297 2.657-0.82 0.262-1.696 0.283-2.556 0.255-5.992-0.192-11.881-2.707-16.162-6.905 0-0.683 1.781-1.688 2.641-2.674 0.204-0.233 0.464-0.484 0.77-0.443 0.182 0.024 0.332 0.148 0.471 0.267 2.015 1.729 4.024 3.553 6.469 4.589 2.445 1.037 5.474 1.139 7.586-0.47 1.436-1.094 2.266-2.831 2.638-4.598 0.372-1.766 0.336-3.589 0.346-5.394 2e-3 -0.282 0.027-0.61 0.258-0.772 0.116-0.081 0.261-0.103 0.4-0.122 0.843-0.118 1.588-0.222 2.53-0.355 0.943-0.131 0.822 10.027-2.094 13.965m-97.628-4.551c-1.739-0.621-2.952-2.476-2.822-4.318l-0.01-0.325 7.581-2.066c1.164 1.433 1.237 3.649 0.17 5.156s-3.18 2.175-4.919 1.553"/>
</g>
</g>
</g>
</svg>
